<mxfile host="app.diagrams.net" modified="2020-09-18T11:46:55.311Z" agent="5.0 (Macintosh; Intel Mac OS X 10_14_6) AppleWebKit/537.36 (KHTML, like Gecko) Chrome/84.0.4147.135 Safari/537.36" etag="1V8XjmLRW2K2t0N8IbSt" version="13.6.4" type="github" pages="7">
  <diagram name="列表页流程" id="13e1069c-82ec-6db2-03f1-153e76fe0fe0">
    <mxGraphModel dx="1694" dy="1137" grid="1" gridSize="10" guides="1" tooltips="1" connect="1" arrows="1" fold="1" page="1" pageScale="1" pageWidth="1100" pageHeight="850" background="#ffffff" math="0" shadow="0">
      <root>
        <mxCell id="0" />
        <mxCell id="1" parent="0" />
        <mxCell id="7baba1c4bc27f4b0-2" value="YunApi" style="shape=umlLifeline;perimeter=lifelinePerimeter;whiteSpace=wrap;html=1;container=1;collapsible=0;recursiveResize=0;outlineConnect=0;rounded=1;shadow=0;comic=0;labelBackgroundColor=none;strokeWidth=1;fontFamily=Verdana;fontSize=12;align=center;" parent="1" vertex="1">
          <mxGeometry x="240" y="80" width="100" height="330" as="geometry" />
        </mxCell>
        <mxCell id="7baba1c4bc27f4b0-10" value="" style="html=1;points=[];perimeter=orthogonalPerimeter;rounded=0;shadow=0;comic=0;labelBackgroundColor=none;strokeWidth=1;fontFamily=Verdana;fontSize=12;align=center;" parent="7baba1c4bc27f4b0-2" vertex="1">
          <mxGeometry x="45" y="100" width="10" height="230" as="geometry" />
        </mxCell>
        <mxCell id="7baba1c4bc27f4b0-3" value="nms_controller" style="shape=umlLifeline;perimeter=lifelinePerimeter;whiteSpace=wrap;html=1;container=1;collapsible=0;recursiveResize=0;outlineConnect=0;rounded=1;shadow=0;comic=0;labelBackgroundColor=none;strokeWidth=1;fontFamily=Verdana;fontSize=12;align=center;" parent="1" vertex="1">
          <mxGeometry x="400" y="80" width="100" height="320" as="geometry" />
        </mxCell>
        <mxCell id="7baba1c4bc27f4b0-13" value="" style="html=1;points=[];perimeter=orthogonalPerimeter;rounded=0;shadow=0;comic=0;labelBackgroundColor=none;strokeWidth=1;fontFamily=Verdana;fontSize=12;align=center;" parent="7baba1c4bc27f4b0-3" vertex="1">
          <mxGeometry x="45" y="120" width="10" height="200" as="geometry" />
        </mxCell>
        <mxCell id="7baba1c4bc27f4b0-4" value="db" style="shape=umlLifeline;perimeter=lifelinePerimeter;whiteSpace=wrap;html=1;container=1;collapsible=0;recursiveResize=0;outlineConnect=0;rounded=1;shadow=0;comic=0;labelBackgroundColor=none;strokeWidth=1;fontFamily=Verdana;fontSize=12;align=center;" parent="1" vertex="1">
          <mxGeometry x="540" y="80" width="100" height="580" as="geometry" />
        </mxCell>
        <mxCell id="7baba1c4bc27f4b0-5" value="zk" style="shape=umlLifeline;perimeter=lifelinePerimeter;whiteSpace=wrap;html=1;container=1;collapsible=0;recursiveResize=0;outlineConnect=0;rounded=1;shadow=0;comic=0;labelBackgroundColor=none;strokeWidth=1;fontFamily=Verdana;fontSize=12;align=center;" parent="1" vertex="1">
          <mxGeometry x="680" y="80" width="100" height="580" as="geometry" />
        </mxCell>
        <mxCell id="7baba1c4bc27f4b0-6" value="nms_monitor" style="shape=umlLifeline;perimeter=lifelinePerimeter;whiteSpace=wrap;html=1;container=1;collapsible=0;recursiveResize=0;outlineConnect=0;rounded=1;shadow=0;comic=0;labelBackgroundColor=none;strokeWidth=1;fontFamily=Verdana;fontSize=12;align=center;" parent="1" vertex="1">
          <mxGeometry x="820" y="80" width="100" height="580" as="geometry" />
        </mxCell>
        <mxCell id="d2u8ksnhpPRQbv2eghVy-8" value="" style="html=1;points=[];perimeter=orthogonalPerimeter;rounded=0;shadow=0;comic=0;labelBackgroundColor=none;strokeWidth=1;fontFamily=Verdana;fontSize=12;align=center;" vertex="1" parent="7baba1c4bc27f4b0-6">
          <mxGeometry x="50" y="179" width="10" height="40" as="geometry" />
        </mxCell>
        <mxCell id="d2u8ksnhpPRQbv2eghVy-9" value="dispatch" style="html=1;verticalAlign=bottom;endArrow=block;labelBackgroundColor=none;fontFamily=Verdana;fontSize=12;elbow=vertical;edgeStyle=orthogonalEdgeStyle;curved=1;exitX=1.038;exitY=0.345;exitPerimeter=0;" edge="1" parent="7baba1c4bc27f4b0-6" target="d2u8ksnhpPRQbv2eghVy-8">
          <mxGeometry x="0.0372" y="-15" relative="1" as="geometry">
            <mxPoint x="60.00333333333349" y="180.67" as="sourcePoint" />
            <mxPoint x="65.00333333333349" y="219.00333333333347" as="targetPoint" />
            <Array as="points">
              <mxPoint x="115" y="181" />
              <mxPoint x="115" y="219" />
            </Array>
            <mxPoint as="offset" />
          </mxGeometry>
        </mxCell>
        <mxCell id="7baba1c4bc27f4b0-8" value="运维端" style="shape=umlLifeline;perimeter=lifelinePerimeter;whiteSpace=wrap;html=1;container=1;collapsible=0;recursiveResize=0;outlineConnect=0;rounded=1;shadow=0;comic=0;labelBackgroundColor=none;strokeWidth=1;fontFamily=Verdana;fontSize=12;align=center;" parent="1" vertex="1">
          <mxGeometry x="100" y="80" width="100" height="690" as="geometry" />
        </mxCell>
        <mxCell id="7baba1c4bc27f4b0-9" value="" style="html=1;points=[];perimeter=orthogonalPerimeter;rounded=0;shadow=0;comic=0;labelBackgroundColor=none;strokeWidth=1;fontFamily=Verdana;fontSize=12;align=center;" parent="7baba1c4bc27f4b0-8" vertex="1">
          <mxGeometry x="45" y="100" width="10" height="560" as="geometry" />
        </mxCell>
        <mxCell id="7baba1c4bc27f4b0-16" value="" style="html=1;points=[];perimeter=orthogonalPerimeter;rounded=0;shadow=0;comic=0;labelBackgroundColor=none;strokeWidth=1;fontFamily=Verdana;fontSize=12;align=center;" parent="1" vertex="1">
          <mxGeometry x="585" y="220" width="10" height="180" as="geometry" />
        </mxCell>
        <mxCell id="7baba1c4bc27f4b0-17" value="dispatch" style="html=1;verticalAlign=bottom;endArrow=block;labelBackgroundColor=none;fontFamily=Verdana;fontSize=12;edgeStyle=elbowEdgeStyle;elbow=vertical;" parent="1" source="7baba1c4bc27f4b0-13" target="7baba1c4bc27f4b0-16" edge="1">
          <mxGeometry relative="1" as="geometry">
            <mxPoint x="510" y="220" as="sourcePoint" />
            <Array as="points">
              <mxPoint x="460" y="220" />
            </Array>
          </mxGeometry>
        </mxCell>
        <mxCell id="7baba1c4bc27f4b0-19" value="" style="html=1;points=[];perimeter=orthogonalPerimeter;rounded=0;shadow=0;comic=0;labelBackgroundColor=none;strokeWidth=1;fontFamily=Verdana;fontSize=12;align=center;" parent="1" vertex="1">
          <mxGeometry x="725" y="230" width="10" height="40" as="geometry" />
        </mxCell>
        <mxCell id="7baba1c4bc27f4b0-20" value="dispatch" style="html=1;verticalAlign=bottom;endArrow=block;entryX=0;entryY=0;labelBackgroundColor=none;fontFamily=Verdana;fontSize=12;edgeStyle=elbowEdgeStyle;elbow=vertical;" parent="1" source="7baba1c4bc27f4b0-16" target="7baba1c4bc27f4b0-19" edge="1">
          <mxGeometry relative="1" as="geometry">
            <mxPoint x="650" y="230" as="sourcePoint" />
          </mxGeometry>
        </mxCell>
        <mxCell id="7baba1c4bc27f4b0-21" value="return" style="html=1;verticalAlign=bottom;endArrow=open;dashed=1;endSize=8;labelBackgroundColor=none;fontFamily=Verdana;fontSize=12;edgeStyle=elbowEdgeStyle;elbow=vertical;" parent="1" source="7baba1c4bc27f4b0-19" target="7baba1c4bc27f4b0-16" edge="1">
          <mxGeometry relative="1" as="geometry">
            <mxPoint x="650" y="306" as="targetPoint" />
            <Array as="points">
              <mxPoint x="670" y="260" />
              <mxPoint x="700" y="260" />
            </Array>
          </mxGeometry>
        </mxCell>
        <mxCell id="7baba1c4bc27f4b0-22" value="" style="html=1;points=[];perimeter=orthogonalPerimeter;rounded=0;shadow=0;comic=0;labelBackgroundColor=none;strokeWidth=1;fontFamily=Verdana;fontSize=12;align=center;" parent="1" vertex="1">
          <mxGeometry x="585" y="440" width="10" height="140" as="geometry" />
        </mxCell>
        <mxCell id="7baba1c4bc27f4b0-23" value="dispatch" style="html=1;verticalAlign=bottom;endArrow=block;labelBackgroundColor=none;fontFamily=Verdana;fontSize=12;entryX=-0.014;entryY=0.038;entryDx=0;entryDy=0;entryPerimeter=0;" parent="1" source="7baba1c4bc27f4b0-9" target="d2u8ksnhpPRQbv2eghVy-4" edge="1">
          <mxGeometry relative="1" as="geometry">
            <mxPoint x="510" y="420" as="sourcePoint" />
            <mxPoint x="280" y="439" as="targetPoint" />
          </mxGeometry>
        </mxCell>
        <mxCell id="7baba1c4bc27f4b0-30" value="return" style="html=1;verticalAlign=bottom;endArrow=open;dashed=1;endSize=8;labelBackgroundColor=none;fontFamily=Verdana;fontSize=12;edgeStyle=elbowEdgeStyle;elbow=vertical;" parent="1" edge="1">
          <mxGeometry x="0.2462" relative="1" as="geometry">
            <mxPoint x="297" y="540" as="targetPoint" />
            <Array as="points">
              <mxPoint x="371" y="540" />
              <mxPoint x="371" y="560" />
            </Array>
            <mxPoint x="446" y="540" as="sourcePoint" />
            <mxPoint as="offset" />
          </mxGeometry>
        </mxCell>
        <mxCell id="7baba1c4bc27f4b0-11" value="dispatch" style="html=1;verticalAlign=bottom;endArrow=block;entryX=0;entryY=0;labelBackgroundColor=none;fontFamily=Verdana;fontSize=12;edgeStyle=elbowEdgeStyle;elbow=vertical;" parent="1" source="7baba1c4bc27f4b0-9" target="7baba1c4bc27f4b0-10" edge="1">
          <mxGeometry relative="1" as="geometry">
            <mxPoint x="220" y="190" as="sourcePoint" />
          </mxGeometry>
        </mxCell>
        <mxCell id="7baba1c4bc27f4b0-14" value="dispatch" style="html=1;verticalAlign=bottom;endArrow=block;entryX=0;entryY=0;labelBackgroundColor=none;fontFamily=Verdana;fontSize=12;edgeStyle=elbowEdgeStyle;elbow=vertical;" parent="1" source="7baba1c4bc27f4b0-10" target="7baba1c4bc27f4b0-13" edge="1">
          <mxGeometry relative="1" as="geometry">
            <mxPoint x="370" y="200" as="sourcePoint" />
          </mxGeometry>
        </mxCell>
        <mxCell id="d2u8ksnhpPRQbv2eghVy-1" value="return" style="html=1;verticalAlign=bottom;endArrow=open;dashed=1;endSize=8;labelBackgroundColor=none;fontFamily=Verdana;fontSize=12;entryX=1.06;entryY=0.398;entryDx=0;entryDy=0;entryPerimeter=0;" edge="1" parent="1" target="7baba1c4bc27f4b0-13">
          <mxGeometry relative="1" as="geometry">
            <mxPoint x="460" y="280" as="targetPoint" />
            <mxPoint x="583" y="280" as="sourcePoint" />
          </mxGeometry>
        </mxCell>
        <mxCell id="d2u8ksnhpPRQbv2eghVy-2" value="return" style="html=1;verticalAlign=bottom;endArrow=open;dashed=1;endSize=8;labelBackgroundColor=none;fontFamily=Verdana;fontSize=12;" edge="1" parent="1">
          <mxGeometry relative="1" as="geometry">
            <mxPoint x="297" y="300" as="targetPoint" />
            <mxPoint x="444.4" y="300.4" as="sourcePoint" />
          </mxGeometry>
        </mxCell>
        <mxCell id="d2u8ksnhpPRQbv2eghVy-3" value="return" style="html=1;verticalAlign=bottom;endArrow=open;dashed=1;endSize=8;labelBackgroundColor=none;fontFamily=Verdana;fontSize=12;" edge="1" parent="1">
          <mxGeometry relative="1" as="geometry">
            <mxPoint x="156.00000000000003" y="330" as="targetPoint" />
            <mxPoint x="286" y="330" as="sourcePoint" />
          </mxGeometry>
        </mxCell>
        <mxCell id="d2u8ksnhpPRQbv2eghVy-4" value="" style="html=1;points=[];perimeter=orthogonalPerimeter;rounded=0;shadow=0;comic=0;labelBackgroundColor=none;strokeWidth=1;fontFamily=Verdana;fontSize=12;align=center;" vertex="1" parent="1">
          <mxGeometry x="285" y="440" width="10" height="290" as="geometry" />
        </mxCell>
        <mxCell id="d2u8ksnhpPRQbv2eghVy-5" value="dispatch" style="html=1;verticalAlign=bottom;endArrow=block;labelBackgroundColor=none;fontFamily=Verdana;fontSize=12;" edge="1" parent="1">
          <mxGeometry relative="1" as="geometry">
            <mxPoint x="295" y="470" as="sourcePoint" />
            <mxPoint x="445" y="470" as="targetPoint" />
          </mxGeometry>
        </mxCell>
        <mxCell id="d2u8ksnhpPRQbv2eghVy-6" value="" style="html=1;points=[];perimeter=orthogonalPerimeter;rounded=0;shadow=0;comic=0;labelBackgroundColor=none;strokeWidth=1;fontFamily=Verdana;fontSize=12;align=center;" vertex="1" parent="1">
          <mxGeometry x="445" y="430" width="10" height="300" as="geometry" />
        </mxCell>
        <mxCell id="d2u8ksnhpPRQbv2eghVy-7" value="return" style="html=1;verticalAlign=bottom;endArrow=open;dashed=1;endSize=8;labelBackgroundColor=none;fontFamily=Verdana;fontSize=12;edgeStyle=elbowEdgeStyle;elbow=vertical;exitX=-0.093;exitY=0.576;exitDx=0;exitDy=0;exitPerimeter=0;" edge="1" parent="1" source="7baba1c4bc27f4b0-22" target="d2u8ksnhpPRQbv2eghVy-6">
          <mxGeometry x="-0.0022" relative="1" as="geometry">
            <mxPoint x="155" y="600" as="targetPoint" />
            <Array as="points">
              <mxPoint x="520" y="520" />
              <mxPoint x="550" y="570" />
              <mxPoint x="540" y="580" />
              <mxPoint x="520" y="560" />
              <mxPoint x="510" y="540" />
              <mxPoint x="530" y="530" />
              <mxPoint x="500" y="520" />
              <mxPoint x="570" y="600" />
            </Array>
            <mxPoint x="583" y="570" as="sourcePoint" />
            <mxPoint as="offset" />
          </mxGeometry>
        </mxCell>
        <mxCell id="d2u8ksnhpPRQbv2eghVy-10" value="dispatch" style="html=1;verticalAlign=bottom;endArrow=block;labelBackgroundColor=none;fontFamily=Verdana;fontSize=12;" edge="1" parent="1">
          <mxGeometry relative="1" as="geometry">
            <mxPoint x="455" y="490" as="sourcePoint" />
            <mxPoint x="585" y="490" as="targetPoint" />
          </mxGeometry>
        </mxCell>
        <mxCell id="d2u8ksnhpPRQbv2eghVy-11" value="return" style="html=1;verticalAlign=bottom;endArrow=open;dashed=1;endSize=8;labelBackgroundColor=none;fontFamily=Verdana;fontSize=12;edgeStyle=elbowEdgeStyle;elbow=vertical;" edge="1" parent="1">
          <mxGeometry x="-0.024" relative="1" as="geometry">
            <mxPoint x="156" y="560" as="targetPoint" />
            <Array as="points">
              <mxPoint x="220" y="560" />
            </Array>
            <mxPoint x="286" y="560" as="sourcePoint" />
            <mxPoint as="offset" />
          </mxGeometry>
        </mxCell>
        <mxCell id="d2u8ksnhpPRQbv2eghVy-12" value="dispatch" style="html=1;verticalAlign=bottom;endArrow=block;labelBackgroundColor=none;fontFamily=Verdana;fontSize=12;edgeStyle=elbowEdgeStyle;elbow=vertical;" edge="1" parent="1" target="7baba1c4bc27f4b0-6">
          <mxGeometry relative="1" as="geometry">
            <mxPoint x="735" y="270" as="sourcePoint" />
            <mxPoint x="865" y="270" as="targetPoint" />
          </mxGeometry>
        </mxCell>
        <mxCell id="d2u8ksnhpPRQbv2eghVy-13" value="参数检查" style="text;html=1;strokeColor=none;fillColor=none;align=center;verticalAlign=middle;whiteSpace=wrap;rounded=0;shadow=0;labelBackgroundColor=none;sketch=0;fontColor=#000000;" vertex="1" parent="1">
          <mxGeometry x="455" y="180" width="55" height="20" as="geometry" />
        </mxCell>
        <mxCell id="d2u8ksnhpPRQbv2eghVy-14" value="网络设备信息写入ZK,配置同步到monitor" style="text;html=1;strokeColor=none;fillColor=none;align=center;verticalAlign=middle;whiteSpace=wrap;rounded=0;shadow=0;labelBackgroundColor=none;sketch=0;fontColor=#000000;" vertex="1" parent="1">
          <mxGeometry x="740" y="220" width="80" height="20" as="geometry" />
        </mxCell>
        <mxCell id="d2u8ksnhpPRQbv2eghVy-15" value="外部组件" style="shape=umlLifeline;perimeter=lifelinePerimeter;whiteSpace=wrap;html=1;container=1;collapsible=0;recursiveResize=0;outlineConnect=0;rounded=1;shadow=0;comic=0;labelBackgroundColor=none;strokeWidth=1;fontFamily=Verdana;fontSize=12;align=center;" vertex="1" parent="1">
          <mxGeometry x="970" y="80" width="100" height="660" as="geometry" />
        </mxCell>
        <mxCell id="d2u8ksnhpPRQbv2eghVy-16" value="" style="html=1;points=[];perimeter=orthogonalPerimeter;rounded=0;shadow=0;comic=0;labelBackgroundColor=none;strokeWidth=1;fontFamily=Verdana;fontSize=12;align=center;" vertex="1" parent="d2u8ksnhpPRQbv2eghVy-15">
          <mxGeometry x="45" y="500" width="10" height="110" as="geometry" />
        </mxCell>
        <mxCell id="d2u8ksnhpPRQbv2eghVy-18" value="return" style="html=1;verticalAlign=bottom;endArrow=open;dashed=1;endSize=8;labelBackgroundColor=none;fontFamily=Verdana;fontSize=12;edgeStyle=elbowEdgeStyle;elbow=vertical;" edge="1" parent="1">
          <mxGeometry x="0.8929" y="-265" relative="1" as="geometry">
            <mxPoint x="455" y="690" as="targetPoint" />
            <Array as="points">
              <mxPoint x="485" y="690" />
              <mxPoint x="675" y="680" />
              <mxPoint x="775" y="700" />
              <mxPoint x="825" y="670" />
            </Array>
            <mxPoint x="1015" y="690" as="sourcePoint" />
            <mxPoint x="265" y="265" as="offset" />
          </mxGeometry>
        </mxCell>
        <mxCell id="d2u8ksnhpPRQbv2eghVy-19" value="dispatch" style="html=1;verticalAlign=bottom;endArrow=block;labelBackgroundColor=none;fontFamily=Verdana;fontSize=12;entryX=-0.014;entryY=0.038;entryDx=0;entryDy=0;entryPerimeter=0;" edge="1" parent="1">
          <mxGeometry x="0.0011" relative="1" as="geometry">
            <mxPoint x="155" y="620" as="sourcePoint" />
            <mxPoint x="284.8600000000001" y="620" as="targetPoint" />
            <mxPoint as="offset" />
          </mxGeometry>
        </mxCell>
        <mxCell id="d2u8ksnhpPRQbv2eghVy-20" value="dispatch" style="html=1;verticalAlign=bottom;endArrow=block;labelBackgroundColor=none;fontFamily=Verdana;fontSize=12;" edge="1" parent="1">
          <mxGeometry relative="1" as="geometry">
            <mxPoint x="295" y="638.98" as="sourcePoint" />
            <mxPoint x="445" y="638.98" as="targetPoint" />
          </mxGeometry>
        </mxCell>
        <mxCell id="d2u8ksnhpPRQbv2eghVy-21" value="dispatch" style="html=1;verticalAlign=bottom;endArrow=block;labelBackgroundColor=none;fontFamily=Verdana;fontSize=12;" edge="1" parent="1" target="d2u8ksnhpPRQbv2eghVy-15">
          <mxGeometry relative="1" as="geometry">
            <mxPoint x="459" y="650" as="sourcePoint" />
            <mxPoint x="595" y="500" as="targetPoint" />
            <Array as="points">
              <mxPoint x="540" y="650" />
            </Array>
          </mxGeometry>
        </mxCell>
        <mxCell id="d2u8ksnhpPRQbv2eghVy-22" value="return" style="html=1;verticalAlign=bottom;endArrow=open;dashed=1;endSize=8;labelBackgroundColor=none;fontFamily=Verdana;fontSize=12;edgeStyle=elbowEdgeStyle;elbow=vertical;" edge="1" parent="1">
          <mxGeometry x="0.2462" relative="1" as="geometry">
            <mxPoint x="297" y="700" as="targetPoint" />
            <Array as="points">
              <mxPoint x="371" y="700" />
              <mxPoint x="371" y="720" />
            </Array>
            <mxPoint x="446" y="700" as="sourcePoint" />
            <mxPoint as="offset" />
          </mxGeometry>
        </mxCell>
        <mxCell id="d2u8ksnhpPRQbv2eghVy-23" value="return" style="html=1;verticalAlign=bottom;endArrow=open;dashed=1;endSize=8;labelBackgroundColor=none;fontFamily=Verdana;fontSize=12;edgeStyle=elbowEdgeStyle;elbow=vertical;" edge="1" parent="1">
          <mxGeometry x="-0.024" relative="1" as="geometry">
            <mxPoint x="156" y="720" as="targetPoint" />
            <Array as="points">
              <mxPoint x="220" y="720" />
            </Array>
            <mxPoint x="286" y="720" as="sourcePoint" />
            <mxPoint as="offset" />
          </mxGeometry>
        </mxCell>
      </root>
    </mxGraphModel>
  </diagram>
  <diagram id="LOtbrCiKBWuSLXQWojdV" name="NMS-部署">
    <mxGraphModel dx="988" dy="663" grid="1" gridSize="10" guides="1" tooltips="1" connect="1" arrows="1" fold="1" page="1" pageScale="1" pageWidth="827" pageHeight="1169" math="0" shadow="0">
      <root>
        <mxCell id="GsDM0AJIOzic4ASQ66OC-0" />
        <mxCell id="GsDM0AJIOzic4ASQ66OC-1" parent="GsDM0AJIOzic4ASQ66OC-0" />
        <mxCell id="6H3mjBsQpc0Cl-Bmhdbp-0" value="" style="rounded=0;whiteSpace=wrap;html=1;shadow=0;labelBackgroundColor=none;sketch=0;fillColor=none;gradientColor=none;fontColor=#000000;dashed=1;" vertex="1" parent="GsDM0AJIOzic4ASQ66OC-1">
          <mxGeometry x="14" y="550" width="806" height="440" as="geometry" />
        </mxCell>
        <mxCell id="6H3mjBsQpc0Cl-Bmhdbp-3" value="" style="rounded=0;whiteSpace=wrap;html=1;shadow=0;labelBackgroundColor=none;sketch=0;fillColor=none;gradientColor=none;fontColor=#000000;dashed=1;" vertex="1" parent="GsDM0AJIOzic4ASQ66OC-1">
          <mxGeometry x="40" y="590" width="370" height="350" as="geometry" />
        </mxCell>
        <mxCell id="Gtt8Fq8D1kp7fb3Ym80Z-3" value="" style="rounded=0;whiteSpace=wrap;html=1;labelBackgroundColor=none;strokeColor=#36393d;fillColor=#eeeeee;shadow=0;sketch=0;" vertex="1" parent="GsDM0AJIOzic4ASQ66OC-1">
          <mxGeometry x="60" y="683" width="320" height="100" as="geometry" />
        </mxCell>
        <mxCell id="Gtt8Fq8D1kp7fb3Ym80Z-2" value="&amp;nbsp;NMS Controller" style="rounded=1;whiteSpace=wrap;html=1;fillColor=#ffcc99;strokeColor=#36393d;" vertex="1" parent="GsDM0AJIOzic4ASQ66OC-1">
          <mxGeometry x="79" y="729.5" width="80" height="25" as="geometry" />
        </mxCell>
        <mxCell id="Gtt8Fq8D1kp7fb3Ym80Z-8" value="&lt;span&gt;NMS Server&lt;/span&gt;" style="rounded=1;whiteSpace=wrap;html=1;fillColor=#ffcc99;strokeColor=#36393d;" vertex="1" parent="GsDM0AJIOzic4ASQ66OC-1">
          <mxGeometry x="280" y="729.5" width="80" height="25" as="geometry" />
        </mxCell>
        <mxCell id="Gtt8Fq8D1kp7fb3Ym80Z-9" value="&lt;span&gt;NMS Monitor&amp;nbsp;&amp;nbsp;&lt;/span&gt;" style="rounded=1;whiteSpace=wrap;html=1;fillColor=#ffcc99;strokeColor=#36393d;" vertex="1" parent="GsDM0AJIOzic4ASQ66OC-1">
          <mxGeometry x="180" y="729.5" width="80" height="25" as="geometry" />
        </mxCell>
        <mxCell id="6H3mjBsQpc0Cl-Bmhdbp-2" value="TGW" style="rounded=0;whiteSpace=wrap;html=1;shadow=0;dashed=1;labelBackgroundColor=none;sketch=0;fillColor=#b1ddf0;fontSize=9;strokeColor=#10739e;" vertex="1" parent="GsDM0AJIOzic4ASQ66OC-1">
          <mxGeometry x="290" y="615" width="60" height="30" as="geometry" />
        </mxCell>
        <mxCell id="6H3mjBsQpc0Cl-Bmhdbp-4" value="STGW" style="rounded=0;whiteSpace=wrap;html=1;shadow=0;dashed=1;labelBackgroundColor=none;sketch=0;fillColor=#b1ddf0;fontSize=9;strokeColor=#10739e;" vertex="1" parent="GsDM0AJIOzic4ASQ66OC-1">
          <mxGeometry x="189" y="615" width="50" height="30" as="geometry" />
        </mxCell>
        <mxCell id="6H3mjBsQpc0Cl-Bmhdbp-5" value="&lt;b&gt;容器集群&lt;/b&gt;" style="text;html=1;strokeColor=none;fillColor=none;align=center;verticalAlign=middle;whiteSpace=wrap;rounded=0;shadow=0;labelBackgroundColor=none;sketch=0;fontSize=9;fontColor=#000000;" vertex="1" parent="GsDM0AJIOzic4ASQ66OC-1">
          <mxGeometry x="195" y="702.5" width="60" height="20" as="geometry" />
        </mxCell>
        <mxCell id="6H3mjBsQpc0Cl-Bmhdbp-6" value="&lt;b&gt;MAZ&lt;/b&gt;" style="text;html=1;strokeColor=none;fillColor=none;align=center;verticalAlign=middle;whiteSpace=wrap;rounded=0;shadow=0;labelBackgroundColor=none;sketch=0;fontSize=9;fontColor=#000000;" vertex="1" parent="GsDM0AJIOzic4ASQ66OC-1">
          <mxGeometry x="230" y="590" width="60" height="20" as="geometry" />
        </mxCell>
        <mxCell id="6H3mjBsQpc0Cl-Bmhdbp-8" value="" style="rounded=0;whiteSpace=wrap;html=1;labelBackgroundColor=none;strokeColor=#6c8ebf;fillColor=#dae8fc;shadow=0;sketch=0;gradientColor=#7ea6e0;" vertex="1" parent="GsDM0AJIOzic4ASQ66OC-1">
          <mxGeometry x="65" y="800" width="320" height="100" as="geometry" />
        </mxCell>
        <mxCell id="6H3mjBsQpc0Cl-Bmhdbp-9" value="HDFS" style="rounded=1;whiteSpace=wrap;html=1;fillColor=#d5e8d4;strokeColor=#82b366;gradientColor=#97d077;" vertex="1" parent="GsDM0AJIOzic4ASQ66OC-1">
          <mxGeometry x="84" y="846.5" width="80" height="25" as="geometry" />
        </mxCell>
        <mxCell id="6H3mjBsQpc0Cl-Bmhdbp-10" value="&lt;span&gt;CDB&lt;/span&gt;" style="rounded=1;whiteSpace=wrap;html=1;fillColor=#d5e8d4;strokeColor=#82b366;gradientColor=#97d077;" vertex="1" parent="GsDM0AJIOzic4ASQ66OC-1">
          <mxGeometry x="285" y="846.5" width="80" height="25" as="geometry" />
        </mxCell>
        <mxCell id="6H3mjBsQpc0Cl-Bmhdbp-11" value="&lt;span&gt;ZK&lt;/span&gt;" style="rounded=1;whiteSpace=wrap;html=1;fillColor=#d5e8d4;strokeColor=#82b366;gradientColor=#97d077;" vertex="1" parent="GsDM0AJIOzic4ASQ66OC-1">
          <mxGeometry x="185" y="846.5" width="80" height="25" as="geometry" />
        </mxCell>
        <mxCell id="6H3mjBsQpc0Cl-Bmhdbp-12" value="&lt;b&gt;支撑组件&lt;/b&gt;" style="text;html=1;strokeColor=none;fillColor=none;align=center;verticalAlign=middle;whiteSpace=wrap;rounded=0;shadow=0;labelBackgroundColor=none;sketch=0;fontSize=9;fontColor=#000000;" vertex="1" parent="GsDM0AJIOzic4ASQ66OC-1">
          <mxGeometry x="200" y="819.5" width="60" height="20" as="geometry" />
        </mxCell>
        <mxCell id="6H3mjBsQpc0Cl-Bmhdbp-13" value="" style="rounded=0;whiteSpace=wrap;html=1;shadow=0;labelBackgroundColor=none;sketch=0;fillColor=none;gradientColor=none;fontColor=#000000;dashed=1;" vertex="1" parent="GsDM0AJIOzic4ASQ66OC-1">
          <mxGeometry x="440" y="590" width="370" height="350" as="geometry" />
        </mxCell>
        <mxCell id="6H3mjBsQpc0Cl-Bmhdbp-14" value="" style="rounded=0;whiteSpace=wrap;html=1;labelBackgroundColor=none;strokeColor=#36393d;fillColor=#eeeeee;shadow=0;sketch=0;" vertex="1" parent="GsDM0AJIOzic4ASQ66OC-1">
          <mxGeometry x="460" y="683" width="320" height="100" as="geometry" />
        </mxCell>
        <mxCell id="6H3mjBsQpc0Cl-Bmhdbp-15" value="&amp;nbsp;NMS Controller" style="rounded=1;whiteSpace=wrap;html=1;fillColor=#ffcc99;strokeColor=#36393d;" vertex="1" parent="GsDM0AJIOzic4ASQ66OC-1">
          <mxGeometry x="479" y="729.5" width="80" height="25" as="geometry" />
        </mxCell>
        <mxCell id="6H3mjBsQpc0Cl-Bmhdbp-16" value="&lt;span&gt;NMS Server&lt;/span&gt;" style="rounded=1;whiteSpace=wrap;html=1;fillColor=#ffcc99;strokeColor=#36393d;" vertex="1" parent="GsDM0AJIOzic4ASQ66OC-1">
          <mxGeometry x="680" y="729.5" width="80" height="25" as="geometry" />
        </mxCell>
        <mxCell id="6H3mjBsQpc0Cl-Bmhdbp-17" value="&lt;span&gt;NMS Monitor&amp;nbsp;&amp;nbsp;&lt;/span&gt;" style="rounded=1;whiteSpace=wrap;html=1;fillColor=#ffcc99;strokeColor=#36393d;" vertex="1" parent="GsDM0AJIOzic4ASQ66OC-1">
          <mxGeometry x="580" y="729.5" width="80" height="25" as="geometry" />
        </mxCell>
        <mxCell id="6H3mjBsQpc0Cl-Bmhdbp-18" value="STGW" style="rounded=0;whiteSpace=wrap;html=1;shadow=0;dashed=1;labelBackgroundColor=none;sketch=0;fillColor=#b1ddf0;fontSize=9;strokeColor=#10739e;" vertex="1" parent="GsDM0AJIOzic4ASQ66OC-1">
          <mxGeometry x="600" y="615" width="60" height="30" as="geometry" />
        </mxCell>
        <mxCell id="6H3mjBsQpc0Cl-Bmhdbp-19" value="TGW" style="rounded=0;whiteSpace=wrap;html=1;shadow=0;dashed=1;labelBackgroundColor=none;sketch=0;fillColor=#b1ddf0;fontSize=9;strokeColor=#10739e;" vertex="1" parent="GsDM0AJIOzic4ASQ66OC-1">
          <mxGeometry x="500" y="615" width="50" height="30" as="geometry" />
        </mxCell>
        <mxCell id="6H3mjBsQpc0Cl-Bmhdbp-20" value="&lt;b&gt;容器集群&lt;/b&gt;" style="text;html=1;strokeColor=none;fillColor=none;align=center;verticalAlign=middle;whiteSpace=wrap;rounded=0;shadow=0;labelBackgroundColor=none;sketch=0;fontSize=9;fontColor=#000000;" vertex="1" parent="GsDM0AJIOzic4ASQ66OC-1">
          <mxGeometry x="595" y="702.5" width="60" height="20" as="geometry" />
        </mxCell>
        <mxCell id="6H3mjBsQpc0Cl-Bmhdbp-21" value="&lt;b&gt;SAZ&lt;/b&gt;" style="text;html=1;strokeColor=none;fillColor=none;align=center;verticalAlign=middle;whiteSpace=wrap;rounded=0;shadow=0;labelBackgroundColor=none;sketch=0;fontSize=9;fontColor=#000000;" vertex="1" parent="GsDM0AJIOzic4ASQ66OC-1">
          <mxGeometry x="540" y="595" width="60" height="20" as="geometry" />
        </mxCell>
        <mxCell id="6H3mjBsQpc0Cl-Bmhdbp-22" value="" style="rounded=0;whiteSpace=wrap;html=1;labelBackgroundColor=none;strokeColor=#6c8ebf;fillColor=#dae8fc;shadow=0;sketch=0;gradientColor=#7ea6e0;" vertex="1" parent="GsDM0AJIOzic4ASQ66OC-1">
          <mxGeometry x="465" y="800" width="320" height="100" as="geometry" />
        </mxCell>
        <mxCell id="6H3mjBsQpc0Cl-Bmhdbp-23" value="HDFS" style="rounded=1;whiteSpace=wrap;html=1;fillColor=#d5e8d4;strokeColor=#82b366;gradientColor=#97d077;" vertex="1" parent="GsDM0AJIOzic4ASQ66OC-1">
          <mxGeometry x="484" y="846.5" width="80" height="25" as="geometry" />
        </mxCell>
        <mxCell id="6H3mjBsQpc0Cl-Bmhdbp-24" value="&lt;span&gt;CDB&lt;/span&gt;" style="rounded=1;whiteSpace=wrap;html=1;fillColor=#d5e8d4;strokeColor=#82b366;gradientColor=#97d077;" vertex="1" parent="GsDM0AJIOzic4ASQ66OC-1">
          <mxGeometry x="685" y="846.5" width="80" height="25" as="geometry" />
        </mxCell>
        <mxCell id="6H3mjBsQpc0Cl-Bmhdbp-25" value="&lt;span&gt;ZK&lt;/span&gt;" style="rounded=1;whiteSpace=wrap;html=1;fillColor=#d5e8d4;strokeColor=#82b366;gradientColor=#97d077;" vertex="1" parent="GsDM0AJIOzic4ASQ66OC-1">
          <mxGeometry x="585" y="846.5" width="80" height="25" as="geometry" />
        </mxCell>
        <mxCell id="6H3mjBsQpc0Cl-Bmhdbp-26" value="&lt;b&gt;支撑组件&lt;/b&gt;" style="text;html=1;strokeColor=none;fillColor=none;align=center;verticalAlign=middle;whiteSpace=wrap;rounded=0;shadow=0;labelBackgroundColor=none;sketch=0;fontSize=9;fontColor=#000000;" vertex="1" parent="GsDM0AJIOzic4ASQ66OC-1">
          <mxGeometry x="600" y="819.5" width="60" height="20" as="geometry" />
        </mxCell>
        <mxCell id="6H3mjBsQpc0Cl-Bmhdbp-27" value="" style="endArrow=classic;startArrow=classic;html=1;shadow=0;fontSize=9;fontColor=#000000;entryX=0;entryY=0.5;entryDx=0;entryDy=0;exitX=1;exitY=0.5;exitDx=0;exitDy=0;" edge="1" parent="GsDM0AJIOzic4ASQ66OC-1" source="6H3mjBsQpc0Cl-Bmhdbp-8" target="6H3mjBsQpc0Cl-Bmhdbp-22">
          <mxGeometry width="50" height="50" relative="1" as="geometry">
            <mxPoint x="320" y="770" as="sourcePoint" />
            <mxPoint x="370" y="720" as="targetPoint" />
          </mxGeometry>
        </mxCell>
        <mxCell id="6H3mjBsQpc0Cl-Bmhdbp-28" value="" style="endArrow=classic;startArrow=classic;html=1;shadow=0;fontSize=9;fontColor=#000000;entryX=0;entryY=0.5;entryDx=0;entryDy=0;exitX=1;exitY=0.5;exitDx=0;exitDy=0;" edge="1" parent="GsDM0AJIOzic4ASQ66OC-1">
          <mxGeometry width="50" height="50" relative="1" as="geometry">
            <mxPoint x="380" y="732.5" as="sourcePoint" />
            <mxPoint x="460" y="732.5" as="targetPoint" />
          </mxGeometry>
        </mxCell>
        <mxCell id="6H3mjBsQpc0Cl-Bmhdbp-29" value="" style="endArrow=classic;html=1;shadow=0;fontSize=9;fontColor=#000000;exitX=0.5;exitY=1;exitDx=0;exitDy=0;entryX=0.481;entryY=0.01;entryDx=0;entryDy=0;entryPerimeter=0;" edge="1" parent="GsDM0AJIOzic4ASQ66OC-1" source="6H3mjBsQpc0Cl-Bmhdbp-4" target="Gtt8Fq8D1kp7fb3Ym80Z-3">
          <mxGeometry width="50" height="50" relative="1" as="geometry">
            <mxPoint x="320" y="770" as="sourcePoint" />
            <mxPoint x="370" y="720" as="targetPoint" />
          </mxGeometry>
        </mxCell>
        <mxCell id="6H3mjBsQpc0Cl-Bmhdbp-30" value="" style="endArrow=classic;html=1;shadow=0;fontSize=9;fontColor=#000000;exitX=0;exitY=0.5;exitDx=0;exitDy=0;" edge="1" parent="GsDM0AJIOzic4ASQ66OC-1" source="6H3mjBsQpc0Cl-Bmhdbp-2">
          <mxGeometry width="50" height="50" relative="1" as="geometry">
            <mxPoint x="310" y="840" as="sourcePoint" />
            <mxPoint x="239" y="630" as="targetPoint" />
          </mxGeometry>
        </mxCell>
        <mxCell id="6H3mjBsQpc0Cl-Bmhdbp-31" value="" style="endArrow=classic;html=1;shadow=0;fontSize=9;fontColor=#000000;exitX=0.5;exitY=1;exitDx=0;exitDy=0;entryX=0.481;entryY=0.01;entryDx=0;entryDy=0;entryPerimeter=0;" edge="1" parent="GsDM0AJIOzic4ASQ66OC-1">
          <mxGeometry width="50" height="50" relative="1" as="geometry">
            <mxPoint x="629.6600000000001" y="645" as="sourcePoint" />
            <mxPoint x="629.5799999999999" y="684.0000000000002" as="targetPoint" />
          </mxGeometry>
        </mxCell>
        <mxCell id="6H3mjBsQpc0Cl-Bmhdbp-32" value="" style="endArrow=classic;html=1;shadow=0;fontSize=9;fontColor=#000000;exitX=1;exitY=0.5;exitDx=0;exitDy=0;entryX=0;entryY=0.5;entryDx=0;entryDy=0;" edge="1" parent="GsDM0AJIOzic4ASQ66OC-1" source="6H3mjBsQpc0Cl-Bmhdbp-19" target="6H3mjBsQpc0Cl-Bmhdbp-18">
          <mxGeometry width="50" height="50" relative="1" as="geometry">
            <mxPoint x="610" y="510" as="sourcePoint" />
            <mxPoint x="680" y="520" as="targetPoint" />
          </mxGeometry>
        </mxCell>
        <mxCell id="6H3mjBsQpc0Cl-Bmhdbp-33" value="&lt;b&gt;MR&lt;/b&gt;" style="text;html=1;strokeColor=none;fillColor=none;align=center;verticalAlign=middle;whiteSpace=wrap;rounded=0;shadow=0;labelBackgroundColor=none;sketch=0;fontSize=9;fontColor=#000000;" vertex="1" parent="GsDM0AJIOzic4ASQ66OC-1">
          <mxGeometry x="400" y="560" width="60" height="20" as="geometry" />
        </mxCell>
        <mxCell id="6H3mjBsQpc0Cl-Bmhdbp-35" value="" style="shape=mxgraph.cisco.routers.router;html=1;pointerEvents=1;dashed=0;fillColor=#036897;strokeColor=#ffffff;strokeWidth=2;verticalLabelPosition=bottom;verticalAlign=top;align=center;outlineConnect=0;rounded=0;shadow=0;labelBackgroundColor=none;sketch=0;fontSize=9;fontColor=#000000;" vertex="1" parent="GsDM0AJIOzic4ASQ66OC-1">
          <mxGeometry x="391" y="460" width="78" height="53" as="geometry" />
        </mxCell>
        <mxCell id="6H3mjBsQpc0Cl-Bmhdbp-36" value="" style="endArrow=classic;html=1;shadow=0;fontSize=9;fontColor=#000000;exitX=1;exitY=0.5;exitDx=0;exitDy=0;" edge="1" parent="GsDM0AJIOzic4ASQ66OC-1" source="6H3mjBsQpc0Cl-Bmhdbp-2" target="6H3mjBsQpc0Cl-Bmhdbp-35">
          <mxGeometry width="50" height="50" relative="1" as="geometry">
            <mxPoint x="280" y="790" as="sourcePoint" />
            <mxPoint x="330" y="740" as="targetPoint" />
            <Array as="points">
              <mxPoint x="390" y="560" />
            </Array>
          </mxGeometry>
        </mxCell>
        <mxCell id="6H3mjBsQpc0Cl-Bmhdbp-38" value="" style="endArrow=classic;html=1;shadow=0;fontSize=9;fontColor=#000000;exitX=0;exitY=0.5;exitDx=0;exitDy=0;" edge="1" parent="GsDM0AJIOzic4ASQ66OC-1" source="6H3mjBsQpc0Cl-Bmhdbp-19">
          <mxGeometry width="50" height="50" relative="1" as="geometry">
            <mxPoint x="389" y="563" as="sourcePoint" />
            <mxPoint x="439" y="513" as="targetPoint" />
          </mxGeometry>
        </mxCell>
      </root>
    </mxGraphModel>
  </diagram>
  <diagram id="dlfN6RBrwDtx-VbXMaAX" name="专线&amp;专线出口">
    <mxGraphModel dx="1186" dy="796" grid="1" gridSize="10" guides="1" tooltips="1" connect="1" arrows="1" fold="1" page="1" pageScale="1" pageWidth="827" pageHeight="1169" math="0" shadow="0">
      <root>
        <mxCell id="i5bhL491zLqNpLNpuSYU-0" />
        <mxCell id="i5bhL491zLqNpLNpuSYU-1" parent="i5bhL491zLqNpLNpuSYU-0" />
        <mxCell id="i5bhL491zLqNpLNpuSYU-2" value="YunApi" style="shape=umlLifeline;perimeter=lifelinePerimeter;whiteSpace=wrap;html=1;container=1;collapsible=0;recursiveResize=0;outlineConnect=0;rounded=1;shadow=0;comic=0;labelBackgroundColor=none;strokeWidth=1;fontFamily=Verdana;fontSize=12;align=center;" vertex="1" parent="i5bhL491zLqNpLNpuSYU-1">
          <mxGeometry x="240" y="80" width="100" height="560" as="geometry" />
        </mxCell>
        <mxCell id="i5bhL491zLqNpLNpuSYU-3" value="" style="html=1;points=[];perimeter=orthogonalPerimeter;rounded=0;shadow=0;comic=0;labelBackgroundColor=none;strokeWidth=1;fontFamily=Verdana;fontSize=12;align=center;" vertex="1" parent="i5bhL491zLqNpLNpuSYU-2">
          <mxGeometry x="45" y="100" width="10" height="460" as="geometry" />
        </mxCell>
        <mxCell id="i5bhL491zLqNpLNpuSYU-4" value="nms_controller" style="shape=umlLifeline;perimeter=lifelinePerimeter;whiteSpace=wrap;html=1;container=1;collapsible=0;recursiveResize=0;outlineConnect=0;rounded=1;shadow=0;comic=0;labelBackgroundColor=none;strokeWidth=1;fontFamily=Verdana;fontSize=12;align=center;" vertex="1" parent="i5bhL491zLqNpLNpuSYU-1">
          <mxGeometry x="400" y="80" width="100" height="560" as="geometry" />
        </mxCell>
        <mxCell id="i5bhL491zLqNpLNpuSYU-5" value="" style="html=1;points=[];perimeter=orthogonalPerimeter;rounded=0;shadow=0;comic=0;labelBackgroundColor=none;strokeWidth=1;fontFamily=Verdana;fontSize=12;align=center;" vertex="1" parent="i5bhL491zLqNpLNpuSYU-4">
          <mxGeometry x="45" y="120" width="10" height="440" as="geometry" />
        </mxCell>
        <mxCell id="i5bhL491zLqNpLNpuSYU-6" value="db" style="shape=umlLifeline;perimeter=lifelinePerimeter;whiteSpace=wrap;html=1;container=1;collapsible=0;recursiveResize=0;outlineConnect=0;rounded=1;shadow=0;comic=0;labelBackgroundColor=none;strokeWidth=1;fontFamily=Verdana;fontSize=12;align=center;" vertex="1" parent="i5bhL491zLqNpLNpuSYU-1">
          <mxGeometry x="540" y="80" width="100" height="430" as="geometry" />
        </mxCell>
        <mxCell id="i5bhL491zLqNpLNpuSYU-7" value="CMgt-DC" style="shape=umlLifeline;perimeter=lifelinePerimeter;whiteSpace=wrap;html=1;container=1;collapsible=0;recursiveResize=0;outlineConnect=0;rounded=1;shadow=0;comic=0;labelBackgroundColor=none;strokeWidth=1;fontFamily=Verdana;fontSize=12;align=center;" vertex="1" parent="i5bhL491zLqNpLNpuSYU-1">
          <mxGeometry x="680" y="80" width="100" height="560" as="geometry" />
        </mxCell>
        <mxCell id="i5bhL491zLqNpLNpuSYU-15" value="" style="html=1;points=[];perimeter=orthogonalPerimeter;rounded=0;shadow=0;comic=0;labelBackgroundColor=none;strokeWidth=1;fontFamily=Verdana;fontSize=12;align=center;" vertex="1" parent="i5bhL491zLqNpLNpuSYU-7">
          <mxGeometry x="45" y="370" width="10" height="70" as="geometry" />
        </mxCell>
        <mxCell id="i5bhL491zLqNpLNpuSYU-11" value="运维端" style="shape=umlLifeline;perimeter=lifelinePerimeter;whiteSpace=wrap;html=1;container=1;collapsible=0;recursiveResize=0;outlineConnect=0;rounded=1;shadow=0;comic=0;labelBackgroundColor=none;strokeWidth=1;fontFamily=Verdana;fontSize=12;align=center;" vertex="1" parent="i5bhL491zLqNpLNpuSYU-1">
          <mxGeometry x="100" y="80" width="100" height="560" as="geometry" />
        </mxCell>
        <mxCell id="i5bhL491zLqNpLNpuSYU-12" value="" style="html=1;points=[];perimeter=orthogonalPerimeter;rounded=0;shadow=0;comic=0;labelBackgroundColor=none;strokeWidth=1;fontFamily=Verdana;fontSize=12;align=center;" vertex="1" parent="i5bhL491zLqNpLNpuSYU-11">
          <mxGeometry x="45" y="100" width="10" height="460" as="geometry" />
        </mxCell>
        <mxCell id="i5bhL491zLqNpLNpuSYU-13" value="" style="html=1;points=[];perimeter=orthogonalPerimeter;rounded=0;shadow=0;comic=0;labelBackgroundColor=none;strokeWidth=1;fontFamily=Verdana;fontSize=12;align=center;" vertex="1" parent="i5bhL491zLqNpLNpuSYU-1">
          <mxGeometry x="585" y="220" width="10" height="420" as="geometry" />
        </mxCell>
        <mxCell id="i5bhL491zLqNpLNpuSYU-14" value="dispatch" style="html=1;verticalAlign=bottom;endArrow=block;labelBackgroundColor=none;fontFamily=Verdana;fontSize=12;edgeStyle=elbowEdgeStyle;elbow=vertical;" edge="1" parent="i5bhL491zLqNpLNpuSYU-1" source="i5bhL491zLqNpLNpuSYU-5" target="i5bhL491zLqNpLNpuSYU-13">
          <mxGeometry relative="1" as="geometry">
            <mxPoint x="510" y="220" as="sourcePoint" />
            <Array as="points">
              <mxPoint x="460" y="220" />
            </Array>
          </mxGeometry>
        </mxCell>
        <mxCell id="i5bhL491zLqNpLNpuSYU-19" value="dispatch" style="html=1;verticalAlign=bottom;endArrow=block;labelBackgroundColor=none;fontFamily=Verdana;fontSize=12;entryX=-0.014;entryY=0.038;entryDx=0;entryDy=0;entryPerimeter=0;" edge="1" parent="i5bhL491zLqNpLNpuSYU-1">
          <mxGeometry relative="1" as="geometry">
            <mxPoint x="155" y="399" as="sourcePoint" />
            <mxPoint x="284.8599999999999" y="399" as="targetPoint" />
          </mxGeometry>
        </mxCell>
        <mxCell id="i5bhL491zLqNpLNpuSYU-21" value="dispatch" style="html=1;verticalAlign=bottom;endArrow=block;entryX=0;entryY=0;labelBackgroundColor=none;fontFamily=Verdana;fontSize=12;edgeStyle=elbowEdgeStyle;elbow=vertical;" edge="1" parent="i5bhL491zLqNpLNpuSYU-1" source="i5bhL491zLqNpLNpuSYU-12" target="i5bhL491zLqNpLNpuSYU-3">
          <mxGeometry relative="1" as="geometry">
            <mxPoint x="220" y="190" as="sourcePoint" />
          </mxGeometry>
        </mxCell>
        <mxCell id="i5bhL491zLqNpLNpuSYU-22" value="dispatch" style="html=1;verticalAlign=bottom;endArrow=block;entryX=0;entryY=0;labelBackgroundColor=none;fontFamily=Verdana;fontSize=12;edgeStyle=elbowEdgeStyle;elbow=vertical;" edge="1" parent="i5bhL491zLqNpLNpuSYU-1" source="i5bhL491zLqNpLNpuSYU-3" target="i5bhL491zLqNpLNpuSYU-5">
          <mxGeometry relative="1" as="geometry">
            <mxPoint x="370" y="200" as="sourcePoint" />
          </mxGeometry>
        </mxCell>
        <mxCell id="i5bhL491zLqNpLNpuSYU-23" value="return" style="html=1;verticalAlign=bottom;endArrow=open;dashed=1;endSize=8;labelBackgroundColor=none;fontFamily=Verdana;fontSize=12;entryX=1.06;entryY=0.398;entryDx=0;entryDy=0;entryPerimeter=0;" edge="1" parent="i5bhL491zLqNpLNpuSYU-1">
          <mxGeometry relative="1" as="geometry">
            <mxPoint x="457.5999999999999" y="259.9999999999999" as="targetPoint" />
            <mxPoint x="585" y="260.4" as="sourcePoint" />
          </mxGeometry>
        </mxCell>
        <mxCell id="i5bhL491zLqNpLNpuSYU-24" value="return" style="html=1;verticalAlign=bottom;endArrow=open;dashed=1;endSize=8;labelBackgroundColor=none;fontFamily=Verdana;fontSize=12;" edge="1" parent="i5bhL491zLqNpLNpuSYU-1">
          <mxGeometry relative="1" as="geometry">
            <mxPoint x="298.9999999999998" y="280.4" as="targetPoint" />
            <mxPoint x="446.4000000000001" y="280.80000000000007" as="sourcePoint" />
          </mxGeometry>
        </mxCell>
        <mxCell id="i5bhL491zLqNpLNpuSYU-25" value="return" style="html=1;verticalAlign=bottom;endArrow=open;dashed=1;endSize=8;labelBackgroundColor=none;fontFamily=Verdana;fontSize=12;" edge="1" parent="i5bhL491zLqNpLNpuSYU-1">
          <mxGeometry relative="1" as="geometry">
            <mxPoint x="158.00000000000023" y="310.4" as="targetPoint" />
            <mxPoint x="288.0000000000002" y="310.4" as="sourcePoint" />
          </mxGeometry>
        </mxCell>
        <mxCell id="i5bhL491zLqNpLNpuSYU-27" value="dispatch" style="html=1;verticalAlign=bottom;endArrow=block;labelBackgroundColor=none;fontFamily=Verdana;fontSize=12;" edge="1" parent="i5bhL491zLqNpLNpuSYU-1">
          <mxGeometry relative="1" as="geometry">
            <mxPoint x="295" y="430" as="sourcePoint" />
            <mxPoint x="445" y="430" as="targetPoint" />
          </mxGeometry>
        </mxCell>
        <mxCell id="i5bhL491zLqNpLNpuSYU-30" value="dispatch" style="html=1;verticalAlign=bottom;endArrow=block;labelBackgroundColor=none;fontFamily=Verdana;fontSize=12;" edge="1" parent="i5bhL491zLqNpLNpuSYU-1">
          <mxGeometry relative="1" as="geometry">
            <mxPoint x="455" y="450" as="sourcePoint" />
            <mxPoint x="585" y="450" as="targetPoint" />
          </mxGeometry>
        </mxCell>
        <mxCell id="i5bhL491zLqNpLNpuSYU-31" value="return" style="html=1;verticalAlign=bottom;endArrow=open;dashed=1;endSize=8;labelBackgroundColor=none;fontFamily=Verdana;fontSize=12;edgeStyle=elbowEdgeStyle;elbow=vertical;" edge="1" parent="i5bhL491zLqNpLNpuSYU-1">
          <mxGeometry x="-0.024" relative="1" as="geometry">
            <mxPoint x="160.00000000000023" y="570" as="targetPoint" />
            <Array as="points" />
            <mxPoint x="290.0000000000002" y="570" as="sourcePoint" />
            <mxPoint as="offset" />
          </mxGeometry>
        </mxCell>
        <mxCell id="i5bhL491zLqNpLNpuSYU-33" value="参数检查" style="text;html=1;strokeColor=none;fillColor=none;align=center;verticalAlign=middle;whiteSpace=wrap;rounded=0;shadow=0;labelBackgroundColor=none;sketch=0;fontColor=#000000;" vertex="1" parent="i5bhL491zLqNpLNpuSYU-1">
          <mxGeometry x="455" y="180" width="55" height="20" as="geometry" />
        </mxCell>
        <mxCell id="OK9FIa0pCyCSObPRsSk0-0" value="return" style="html=1;verticalAlign=bottom;endArrow=open;dashed=1;endSize=8;labelBackgroundColor=none;fontFamily=Verdana;fontSize=12;entryX=1.06;entryY=0.398;entryDx=0;entryDy=0;entryPerimeter=0;exitX=-0.048;exitY=0.737;exitDx=0;exitDy=0;exitPerimeter=0;" edge="1" parent="i5bhL491zLqNpLNpuSYU-1" source="i5bhL491zLqNpLNpuSYU-13">
          <mxGeometry relative="1" as="geometry">
            <mxPoint x="452.5999999999999" y="530" as="targetPoint" />
            <mxPoint x="580" y="530.4000000000001" as="sourcePoint" />
          </mxGeometry>
        </mxCell>
        <mxCell id="OK9FIa0pCyCSObPRsSk0-1" value="return" style="html=1;verticalAlign=bottom;endArrow=open;dashed=1;endSize=8;labelBackgroundColor=none;fontFamily=Verdana;fontSize=12;" edge="1" parent="i5bhL491zLqNpLNpuSYU-1">
          <mxGeometry relative="1" as="geometry">
            <mxPoint x="293.9999999999998" y="550.4000000000001" as="targetPoint" />
            <mxPoint x="441.4000000000001" y="550.8000000000002" as="sourcePoint" />
          </mxGeometry>
        </mxCell>
        <mxCell id="OK9FIa0pCyCSObPRsSk0-2" value="dispatch" style="html=1;verticalAlign=bottom;endArrow=block;labelBackgroundColor=none;fontFamily=Verdana;fontSize=12;" edge="1" parent="i5bhL491zLqNpLNpuSYU-1">
          <mxGeometry relative="1" as="geometry">
            <mxPoint x="595" y="470" as="sourcePoint" />
            <mxPoint x="725" y="470" as="targetPoint" />
          </mxGeometry>
        </mxCell>
        <mxCell id="OK9FIa0pCyCSObPRsSk0-3" value="return" style="html=1;verticalAlign=bottom;endArrow=open;dashed=1;endSize=8;labelBackgroundColor=none;fontFamily=Verdana;fontSize=12;entryX=1.06;entryY=0.398;entryDx=0;entryDy=0;entryPerimeter=0;" edge="1" parent="i5bhL491zLqNpLNpuSYU-1" source="i5bhL491zLqNpLNpuSYU-7">
          <mxGeometry relative="1" as="geometry">
            <mxPoint x="594.9999999999999" y="509.17" as="targetPoint" />
            <mxPoint x="722.4" y="509.5700000000001" as="sourcePoint" />
          </mxGeometry>
        </mxCell>
        <mxCell id="OK9FIa0pCyCSObPRsSk0-4" value="读取物理专线信息" style="text;html=1;strokeColor=none;fillColor=none;align=center;verticalAlign=middle;whiteSpace=wrap;rounded=0;shadow=0;labelBackgroundColor=none;sketch=0;fontColor=#000000;" vertex="1" parent="i5bhL491zLqNpLNpuSYU-1">
          <mxGeometry x="740" y="470" width="50" height="20" as="geometry" />
        </mxCell>
      </root>
    </mxGraphModel>
  </diagram>
  <diagram id="ymqEyjq54Z-bE6ud2kkc" name="网络拓扑">
    <mxGraphModel dx="1395" dy="936" grid="1" gridSize="10" guides="1" tooltips="1" connect="1" arrows="1" fold="1" page="1" pageScale="1" pageWidth="827" pageHeight="1169" math="0" shadow="0">
      <root>
        <mxCell id="Yfu8g2zuAxFd_L9mQOqp-0" />
        <mxCell id="Mlb6Ye1fJu_ffZafTqqY-3" parent="Yfu8g2zuAxFd_L9mQOqp-0" />
        <mxCell id="Mlb6Ye1fJu_ffZafTqqY-108" value="Main Thread" style="swimlane;whiteSpace=wrap" vertex="1" parent="Mlb6Ye1fJu_ffZafTqqY-3">
          <mxGeometry x="330" y="190" width="280" height="570" as="geometry">
            <mxRectangle x="330" y="190" width="80" height="23" as="alternateBounds" />
          </mxGeometry>
        </mxCell>
        <mxCell id="Mlb6Ye1fJu_ffZafTqqY-109" value="" style="ellipse;shape=startState;fillColor=#000000;strokeColor=#ff0000;" vertex="1" parent="Mlb6Ye1fJu_ffZafTqqY-108">
          <mxGeometry x="100" y="40" width="30" height="30" as="geometry" />
        </mxCell>
        <mxCell id="Mlb6Ye1fJu_ffZafTqqY-110" value="" style="edgeStyle=elbowEdgeStyle;elbow=horizontal;verticalAlign=bottom;endArrow=open;endSize=8;strokeColor=#FF0000;endFill=1;rounded=0" edge="1" parent="Mlb6Ye1fJu_ffZafTqqY-108" source="Mlb6Ye1fJu_ffZafTqqY-109" target="Mlb6Ye1fJu_ffZafTqqY-111">
          <mxGeometry x="100" y="40" as="geometry">
            <mxPoint x="115" y="110" as="targetPoint" />
          </mxGeometry>
        </mxCell>
        <mxCell id="Mlb6Ye1fJu_ffZafTqqY-111" value="5minites Timer" style="" vertex="1" parent="Mlb6Ye1fJu_ffZafTqqY-108">
          <mxGeometry x="60" y="110" width="110" height="50" as="geometry" />
        </mxCell>
        <mxCell id="Mlb6Ye1fJu_ffZafTqqY-112" value="遍历网络设备,IP去重(堆叠设备),获取设备信息入队列" style="whiteSpace=wrap;fontSize=9;" vertex="1" parent="Mlb6Ye1fJu_ffZafTqqY-108">
          <mxGeometry x="60" y="220" width="110" height="50" as="geometry" />
        </mxCell>
        <mxCell id="Mlb6Ye1fJu_ffZafTqqY-113" value="" style="endArrow=open;strokeColor=#FF0000;endFill=1;rounded=0" edge="1" parent="Mlb6Ye1fJu_ffZafTqqY-108" source="Mlb6Ye1fJu_ffZafTqqY-111" target="Mlb6Ye1fJu_ffZafTqqY-112">
          <mxGeometry relative="1" as="geometry" />
        </mxCell>
        <mxCell id="Mlb6Ye1fJu_ffZafTqqY-114" value="一致性hash算法,生产设备IP属于POD节点的设备入队列" style="whiteSpace=wrap;" vertex="1" parent="Mlb6Ye1fJu_ffZafTqqY-108">
          <mxGeometry x="60" y="325" width="110" height="50" as="geometry" />
        </mxCell>
        <mxCell id="Mlb6Ye1fJu_ffZafTqqY-115" value="" style="endArrow=open;strokeColor=#FF0000;endFill=1;rounded=0" edge="1" parent="Mlb6Ye1fJu_ffZafTqqY-108" source="Mlb6Ye1fJu_ffZafTqqY-112" target="Mlb6Ye1fJu_ffZafTqqY-114">
          <mxGeometry relative="1" as="geometry" />
        </mxCell>
        <mxCell id="Mlb6Ye1fJu_ffZafTqqY-116" value="" style="edgeStyle=elbowEdgeStyle;elbow=horizontal;strokeColor=#FF0000;endArrow=open;endFill=1;rounded=0" edge="1" parent="Mlb6Ye1fJu_ffZafTqqY-108" source="Mlb6Ye1fJu_ffZafTqqY-114" target="Mlb6Ye1fJu_ffZafTqqY-111">
          <mxGeometry width="100" height="100" relative="1" as="geometry">
            <mxPoint x="160" y="290" as="sourcePoint" />
            <mxPoint x="260" y="190" as="targetPoint" />
            <Array as="points">
              <mxPoint x="30" y="250" />
            </Array>
          </mxGeometry>
        </mxCell>
        <mxCell id="Mlb6Ye1fJu_ffZafTqqY-117" value="Thread 1-40" style="swimlane;whiteSpace=wrap" vertex="1" parent="Mlb6Ye1fJu_ffZafTqqY-3">
          <mxGeometry x="610" y="190" width="550" height="570" as="geometry">
            <mxRectangle x="610" y="190" width="80" height="23" as="alternateBounds" />
          </mxGeometry>
        </mxCell>
        <mxCell id="Mlb6Ye1fJu_ffZafTqqY-118" value="" style="ellipse;shape=startState;fillColor=#000000;strokeColor=#ff0000;" vertex="1" parent="Mlb6Ye1fJu_ffZafTqqY-117">
          <mxGeometry x="60" y="40" width="30" height="30" as="geometry" />
        </mxCell>
        <mxCell id="Mlb6Ye1fJu_ffZafTqqY-119" value="" style="edgeStyle=elbowEdgeStyle;elbow=horizontal;verticalAlign=bottom;endArrow=open;endSize=8;strokeColor=#FF0000;endFill=1;rounded=0" edge="1" parent="Mlb6Ye1fJu_ffZafTqqY-117" source="Mlb6Ye1fJu_ffZafTqqY-118" target="Mlb6Ye1fJu_ffZafTqqY-120">
          <mxGeometry x="40" y="20" as="geometry">
            <mxPoint x="55" y="90" as="targetPoint" />
          </mxGeometry>
        </mxCell>
        <mxCell id="Mlb6Ye1fJu_ffZafTqqY-120" value="idle" style="" vertex="1" parent="Mlb6Ye1fJu_ffZafTqqY-117">
          <mxGeometry x="20" y="110" width="110" height="50" as="geometry" />
        </mxCell>
        <mxCell id="Mlb6Ye1fJu_ffZafTqqY-121" value="查找队列Size" style="" vertex="1" parent="Mlb6Ye1fJu_ffZafTqqY-117">
          <mxGeometry x="20" y="220" width="110" height="50" as="geometry" />
        </mxCell>
        <mxCell id="Mlb6Ye1fJu_ffZafTqqY-122" value="" style="endArrow=open;strokeColor=#FF0000;endFill=1;rounded=0" edge="1" parent="Mlb6Ye1fJu_ffZafTqqY-117" source="Mlb6Ye1fJu_ffZafTqqY-120" target="Mlb6Ye1fJu_ffZafTqqY-121">
          <mxGeometry relative="1" as="geometry" />
        </mxCell>
        <mxCell id="Mlb6Ye1fJu_ffZafTqqY-123" value="设备队列" style="" vertex="1" parent="Mlb6Ye1fJu_ffZafTqqY-117">
          <mxGeometry x="20" y="325" width="110" height="50" as="geometry" />
        </mxCell>
        <mxCell id="Mlb6Ye1fJu_ffZafTqqY-124" value="" style="endArrow=open;strokeColor=#FF0000;endFill=1;rounded=0" edge="1" parent="Mlb6Ye1fJu_ffZafTqqY-117" source="Mlb6Ye1fJu_ffZafTqqY-121" target="Mlb6Ye1fJu_ffZafTqqY-123">
          <mxGeometry relative="1" as="geometry" />
        </mxCell>
        <mxCell id="Mlb6Ye1fJu_ffZafTqqY-125" value="queue empty" style="rhombus;fillColor=#ffffc0;strokeColor=#ff0000;" vertex="1" parent="Mlb6Ye1fJu_ffZafTqqY-117">
          <mxGeometry x="150" y="225" width="80" height="40" as="geometry" />
        </mxCell>
        <mxCell id="Mlb6Ye1fJu_ffZafTqqY-126" value="yes" style="edgeStyle=elbowEdgeStyle;elbow=horizontal;align=left;verticalAlign=bottom;endArrow=open;endSize=8;strokeColor=#FF0000;exitX=0.5;exitY=0;endFill=1;rounded=0;entryX=0.75;entryY=0.5;entryPerimeter=0" edge="1" parent="Mlb6Ye1fJu_ffZafTqqY-117" source="Mlb6Ye1fJu_ffZafTqqY-125" target="Mlb6Ye1fJu_ffZafTqqY-129">
          <mxGeometry x="-1" relative="1" as="geometry">
            <mxPoint x="160" y="150" as="targetPoint" />
            <Array as="points">
              <mxPoint x="190" y="180" />
            </Array>
          </mxGeometry>
        </mxCell>
        <mxCell id="Mlb6Ye1fJu_ffZafTqqY-127" value="no" style="edgeStyle=elbowEdgeStyle;elbow=horizontal;align=left;verticalAlign=top;endArrow=open;endSize=8;strokeColor=#FF0000;endFill=1;rounded=0" edge="1" parent="Mlb6Ye1fJu_ffZafTqqY-117" source="Mlb6Ye1fJu_ffZafTqqY-125" target="Mlb6Ye1fJu_ffZafTqqY-131">
          <mxGeometry x="-1" relative="1" as="geometry">
            <mxPoint x="190" y="305" as="targetPoint" />
          </mxGeometry>
        </mxCell>
        <mxCell id="Mlb6Ye1fJu_ffZafTqqY-128" value="" style="endArrow=open;strokeColor=#FF0000;endFill=1;rounded=0" edge="1" parent="Mlb6Ye1fJu_ffZafTqqY-117" source="Mlb6Ye1fJu_ffZafTqqY-121" target="Mlb6Ye1fJu_ffZafTqqY-125">
          <mxGeometry relative="1" as="geometry" />
        </mxCell>
        <mxCell id="Mlb6Ye1fJu_ffZafTqqY-129" value="" style="shape=line;strokeWidth=6;strokeColor=#ff0000;rotation=90" vertex="1" parent="Mlb6Ye1fJu_ffZafTqqY-117">
          <mxGeometry x="130" y="127.5" width="50" height="15" as="geometry" />
        </mxCell>
        <mxCell id="Mlb6Ye1fJu_ffZafTqqY-130" value="" style="edgeStyle=elbowEdgeStyle;elbow=horizontal;verticalAlign=bottom;endArrow=open;endSize=8;strokeColor=#FF0000;endFill=1;rounded=0" edge="1" parent="Mlb6Ye1fJu_ffZafTqqY-117" source="Mlb6Ye1fJu_ffZafTqqY-129" target="Mlb6Ye1fJu_ffZafTqqY-120">
          <mxGeometry x="130" y="90" as="geometry">
            <mxPoint x="230" y="140" as="targetPoint" />
          </mxGeometry>
        </mxCell>
        <mxCell id="Mlb6Ye1fJu_ffZafTqqY-131" value="dispatch&#xa;netdevice " style="" vertex="1" parent="Mlb6Ye1fJu_ffZafTqqY-117">
          <mxGeometry x="140" y="325" width="110" height="50" as="geometry" />
        </mxCell>
        <mxCell id="Mlb6Ye1fJu_ffZafTqqY-134" value="" style="whiteSpace=wrap;strokeColor=#FF0000;fillColor=#FF0000;rotation=90;" vertex="1" parent="Mlb6Ye1fJu_ffZafTqqY-117">
          <mxGeometry x="192.5" y="395" width="5" height="50" as="geometry" />
        </mxCell>
        <mxCell id="Mlb6Ye1fJu_ffZafTqqY-135" value="" style="edgeStyle=elbowEdgeStyle;elbow=horizontal;strokeColor=#FF0000;endArrow=open;endFill=1;rounded=0" edge="1" parent="Mlb6Ye1fJu_ffZafTqqY-117" source="Mlb6Ye1fJu_ffZafTqqY-131">
          <mxGeometry width="100" height="100" relative="1" as="geometry">
            <mxPoint x="60" y="480" as="sourcePoint" />
            <mxPoint x="195" y="418" as="targetPoint" />
            <Array as="points">
              <mxPoint x="195" y="400" />
            </Array>
          </mxGeometry>
        </mxCell>
        <mxCell id="Mlb6Ye1fJu_ffZafTqqY-145" value="" style="edgeStyle=elbowEdgeStyle;elbow=horizontal;align=left;verticalAlign=bottom;endArrow=open;endSize=8;strokeColor=#FF0000;endFill=1;rounded=0;" edge="1" parent="Mlb6Ye1fJu_ffZafTqqY-117">
          <mxGeometry x="0.288" y="175" relative="1" as="geometry">
            <mxPoint x="420" y="90" as="targetPoint" />
            <Array as="points">
              <mxPoint x="420" y="-10.5" />
            </Array>
            <mxPoint x="280" y="50" as="sourcePoint" />
            <mxPoint as="offset" />
          </mxGeometry>
        </mxCell>
        <mxCell id="Mlb6Ye1fJu_ffZafTqqY-146" value="" style="endArrow=none;html=1;fontSize=9;fontColor=#000000;exitX=1;exitY=0.5;exitDx=0;exitDy=0;edgeStyle=orthogonalEdgeStyle;shadow=0;rounded=0;fillColor=#e51400;strokeColor=#B20000;endFill=0;" edge="1" parent="Mlb6Ye1fJu_ffZafTqqY-117" source="Mlb6Ye1fJu_ffZafTqqY-134">
          <mxGeometry width="50" height="50" relative="1" as="geometry">
            <mxPoint x="240" y="495" as="sourcePoint" />
            <mxPoint x="280" y="50" as="targetPoint" />
          </mxGeometry>
        </mxCell>
        <mxCell id="Mlb6Ye1fJu_ffZafTqqY-147" value="Snmp通过LLDP查找对端Port,Sysname," style="whiteSpace=wrap;" vertex="1" parent="Mlb6Ye1fJu_ffZafTqqY-117">
          <mxGeometry x="330" y="90" width="180" height="50" as="geometry" />
        </mxCell>
        <mxCell id="Mlb6Ye1fJu_ffZafTqqY-148" value="" style="edgeStyle=elbowEdgeStyle;elbow=horizontal;strokeColor=#FF0000;endArrow=open;endFill=1;rounded=0;entryX=0.5;entryY=0;entryDx=0;entryDy=0;" edge="1" parent="Mlb6Ye1fJu_ffZafTqqY-117" target="Mlb6Ye1fJu_ffZafTqqY-149">
          <mxGeometry width="100" height="100" relative="1" as="geometry">
            <mxPoint x="419.86" y="140" as="sourcePoint" />
            <mxPoint x="419.86" y="183" as="targetPoint" />
            <Array as="points">
              <mxPoint x="419.86" y="165" />
            </Array>
          </mxGeometry>
        </mxCell>
        <mxCell id="Mlb6Ye1fJu_ffZafTqqY-149" value="计算网络设备拓扑,保存在TopoDB" style="whiteSpace=wrap;" vertex="1" parent="Mlb6Ye1fJu_ffZafTqqY-117">
          <mxGeometry x="330" y="190" width="180" height="50" as="geometry" />
        </mxCell>
        <mxCell id="Mlb6Ye1fJu_ffZafTqqY-150" value="Snmp通过MAC,VFI MAC查找对端Port,解析SG端口的物理口" style="whiteSpace=wrap;" vertex="1" parent="Mlb6Ye1fJu_ffZafTqqY-117">
          <mxGeometry x="330" y="270" width="180" height="50" as="geometry" />
        </mxCell>
        <mxCell id="Mlb6Ye1fJu_ffZafTqqY-151" value="" style="edgeStyle=elbowEdgeStyle;elbow=horizontal;strokeColor=#FF0000;endArrow=open;endFill=1;rounded=0;entryX=0.5;entryY=0;entryDx=0;entryDy=0;" edge="1" parent="Mlb6Ye1fJu_ffZafTqqY-117" target="Mlb6Ye1fJu_ffZafTqqY-152">
          <mxGeometry width="100" height="100" relative="1" as="geometry">
            <mxPoint x="419.8600000000001" y="320" as="sourcePoint" />
            <mxPoint x="-190.14" y="173" as="targetPoint" />
            <Array as="points">
              <mxPoint x="419.8600000000001" y="345" />
            </Array>
          </mxGeometry>
        </mxCell>
        <mxCell id="Mlb6Ye1fJu_ffZafTqqY-152" value="查找DCOS服务器列表,计算Server拓扑连接,保存在TopoDB" style="whiteSpace=wrap;" vertex="1" parent="Mlb6Ye1fJu_ffZafTqqY-117">
          <mxGeometry x="330" y="370" width="180" height="50" as="geometry" />
        </mxCell>
        <mxCell id="3NWAaCgE0NskVn0YbCsD-0" value="" style="edgeStyle=elbowEdgeStyle;elbow=horizontal;strokeColor=#FF0000;endArrow=open;endFill=1;rounded=0;entryX=0.5;entryY=0;entryDx=0;entryDy=0;" edge="1" parent="Mlb6Ye1fJu_ffZafTqqY-117" target="Mlb6Ye1fJu_ffZafTqqY-150">
          <mxGeometry width="100" height="100" relative="1" as="geometry">
            <mxPoint x="419.7099999999996" y="240" as="sourcePoint" />
            <mxPoint x="419.8499999999999" y="290" as="targetPoint" />
            <Array as="points">
              <mxPoint x="419.8499999999999" y="180" />
            </Array>
          </mxGeometry>
        </mxCell>
        <mxCell id="Mlb6Ye1fJu_ffZafTqqY-142" value="" style="endArrow=open;strokeColor=#FF0000;endFill=1;rounded=0" edge="1" parent="Mlb6Ye1fJu_ffZafTqqY-3" source="Mlb6Ye1fJu_ffZafTqqY-114" target="Mlb6Ye1fJu_ffZafTqqY-123">
          <mxGeometry relative="1" as="geometry" />
        </mxCell>
      </root>
    </mxGraphModel>
  </diagram>
  <diagram id="_m-_qE9Rm7kMlg6acNVY" name="网络设备监控">
    <mxGraphModel dx="1395" dy="936" grid="1" gridSize="10" guides="1" tooltips="1" connect="1" arrows="1" fold="1" page="1" pageScale="1" pageWidth="827" pageHeight="1169" math="0" shadow="0">
      <root>
        <mxCell id="6PQ8ppktEuucakuO9UaT-0" />
        <mxCell id="6PQ8ppktEuucakuO9UaT-1" parent="6PQ8ppktEuucakuO9UaT-0" />
        <mxCell id="XE2whXjkttcQL6sqDFUg-0" value="Main Thread" style="swimlane;whiteSpace=wrap" vertex="1" parent="6PQ8ppktEuucakuO9UaT-1">
          <mxGeometry x="90" y="190" width="280" height="570" as="geometry">
            <mxRectangle x="330" y="190" width="80" height="23" as="alternateBounds" />
          </mxGeometry>
        </mxCell>
        <mxCell id="XE2whXjkttcQL6sqDFUg-1" value="" style="ellipse;shape=startState;fillColor=#000000;strokeColor=#ff0000;" vertex="1" parent="XE2whXjkttcQL6sqDFUg-0">
          <mxGeometry x="100" y="40" width="30" height="30" as="geometry" />
        </mxCell>
        <mxCell id="XE2whXjkttcQL6sqDFUg-2" value="" style="edgeStyle=elbowEdgeStyle;elbow=horizontal;verticalAlign=bottom;endArrow=open;endSize=8;strokeColor=#FF0000;endFill=1;rounded=0" edge="1" parent="XE2whXjkttcQL6sqDFUg-0" source="XE2whXjkttcQL6sqDFUg-1" target="XE2whXjkttcQL6sqDFUg-3">
          <mxGeometry x="100" y="40" as="geometry">
            <mxPoint x="115" y="110" as="targetPoint" />
          </mxGeometry>
        </mxCell>
        <mxCell id="XE2whXjkttcQL6sqDFUg-3" value="5minites Timer" style="" vertex="1" parent="XE2whXjkttcQL6sqDFUg-0">
          <mxGeometry x="60" y="110" width="110" height="50" as="geometry" />
        </mxCell>
        <mxCell id="XE2whXjkttcQL6sqDFUg-4" value="遍历网络设备,IP去重(堆叠设备),获取设备信息入队列" style="whiteSpace=wrap;fontSize=9;" vertex="1" parent="XE2whXjkttcQL6sqDFUg-0">
          <mxGeometry x="60" y="220" width="110" height="50" as="geometry" />
        </mxCell>
        <mxCell id="XE2whXjkttcQL6sqDFUg-5" value="" style="endArrow=open;strokeColor=#FF0000;endFill=1;rounded=0" edge="1" parent="XE2whXjkttcQL6sqDFUg-0" source="XE2whXjkttcQL6sqDFUg-3" target="XE2whXjkttcQL6sqDFUg-4">
          <mxGeometry relative="1" as="geometry" />
        </mxCell>
        <mxCell id="XE2whXjkttcQL6sqDFUg-6" value="一致性hash算法,生产设备IP属于POD节点的设备入队列" style="whiteSpace=wrap;" vertex="1" parent="XE2whXjkttcQL6sqDFUg-0">
          <mxGeometry x="60" y="325" width="110" height="50" as="geometry" />
        </mxCell>
        <mxCell id="XE2whXjkttcQL6sqDFUg-7" value="" style="endArrow=open;strokeColor=#FF0000;endFill=1;rounded=0" edge="1" parent="XE2whXjkttcQL6sqDFUg-0" source="XE2whXjkttcQL6sqDFUg-4" target="XE2whXjkttcQL6sqDFUg-6">
          <mxGeometry relative="1" as="geometry" />
        </mxCell>
        <mxCell id="XE2whXjkttcQL6sqDFUg-8" value="" style="edgeStyle=elbowEdgeStyle;elbow=horizontal;strokeColor=#FF0000;endArrow=open;endFill=1;rounded=0" edge="1" parent="XE2whXjkttcQL6sqDFUg-0" source="XE2whXjkttcQL6sqDFUg-6" target="XE2whXjkttcQL6sqDFUg-3">
          <mxGeometry width="100" height="100" relative="1" as="geometry">
            <mxPoint x="160" y="290" as="sourcePoint" />
            <mxPoint x="260" y="190" as="targetPoint" />
            <Array as="points">
              <mxPoint x="30" y="250" />
            </Array>
          </mxGeometry>
        </mxCell>
        <mxCell id="XE2whXjkttcQL6sqDFUg-9" value="Thread 1-40" style="swimlane;whiteSpace=wrap" vertex="1" parent="6PQ8ppktEuucakuO9UaT-1">
          <mxGeometry x="370" y="190" width="550" height="570" as="geometry">
            <mxRectangle x="370" y="190" width="80" height="23" as="alternateBounds" />
          </mxGeometry>
        </mxCell>
        <mxCell id="XE2whXjkttcQL6sqDFUg-10" value="" style="ellipse;shape=startState;fillColor=#000000;strokeColor=#ff0000;" vertex="1" parent="XE2whXjkttcQL6sqDFUg-9">
          <mxGeometry x="60" y="40" width="30" height="30" as="geometry" />
        </mxCell>
        <mxCell id="XE2whXjkttcQL6sqDFUg-11" value="" style="edgeStyle=elbowEdgeStyle;elbow=horizontal;verticalAlign=bottom;endArrow=open;endSize=8;strokeColor=#FF0000;endFill=1;rounded=0" edge="1" parent="XE2whXjkttcQL6sqDFUg-9" source="XE2whXjkttcQL6sqDFUg-10" target="XE2whXjkttcQL6sqDFUg-12">
          <mxGeometry x="40" y="20" as="geometry">
            <mxPoint x="55" y="90" as="targetPoint" />
          </mxGeometry>
        </mxCell>
        <mxCell id="XE2whXjkttcQL6sqDFUg-12" value="idle" style="" vertex="1" parent="XE2whXjkttcQL6sqDFUg-9">
          <mxGeometry x="20" y="110" width="110" height="50" as="geometry" />
        </mxCell>
        <mxCell id="XE2whXjkttcQL6sqDFUg-13" value="查找队列Size" style="" vertex="1" parent="XE2whXjkttcQL6sqDFUg-9">
          <mxGeometry x="20" y="220" width="110" height="50" as="geometry" />
        </mxCell>
        <mxCell id="XE2whXjkttcQL6sqDFUg-14" value="" style="endArrow=open;strokeColor=#FF0000;endFill=1;rounded=0" edge="1" parent="XE2whXjkttcQL6sqDFUg-9" source="XE2whXjkttcQL6sqDFUg-12" target="XE2whXjkttcQL6sqDFUg-13">
          <mxGeometry relative="1" as="geometry" />
        </mxCell>
        <mxCell id="XE2whXjkttcQL6sqDFUg-15" value="设备队列" style="" vertex="1" parent="XE2whXjkttcQL6sqDFUg-9">
          <mxGeometry x="20" y="325" width="110" height="50" as="geometry" />
        </mxCell>
        <mxCell id="XE2whXjkttcQL6sqDFUg-16" value="" style="endArrow=open;strokeColor=#FF0000;endFill=1;rounded=0" edge="1" parent="XE2whXjkttcQL6sqDFUg-9" source="XE2whXjkttcQL6sqDFUg-13" target="XE2whXjkttcQL6sqDFUg-15">
          <mxGeometry relative="1" as="geometry" />
        </mxCell>
        <mxCell id="XE2whXjkttcQL6sqDFUg-17" value="queue empty" style="rhombus;fillColor=#ffffc0;strokeColor=#ff0000;" vertex="1" parent="XE2whXjkttcQL6sqDFUg-9">
          <mxGeometry x="150" y="225" width="80" height="40" as="geometry" />
        </mxCell>
        <mxCell id="XE2whXjkttcQL6sqDFUg-18" value="yes" style="edgeStyle=elbowEdgeStyle;elbow=horizontal;align=left;verticalAlign=bottom;endArrow=open;endSize=8;strokeColor=#FF0000;exitX=0.5;exitY=0;endFill=1;rounded=0;entryX=0.75;entryY=0.5;entryPerimeter=0" edge="1" parent="XE2whXjkttcQL6sqDFUg-9" source="XE2whXjkttcQL6sqDFUg-17" target="XE2whXjkttcQL6sqDFUg-21">
          <mxGeometry x="-1" relative="1" as="geometry">
            <mxPoint x="160" y="150" as="targetPoint" />
            <Array as="points">
              <mxPoint x="190" y="180" />
            </Array>
          </mxGeometry>
        </mxCell>
        <mxCell id="XE2whXjkttcQL6sqDFUg-19" value="no" style="edgeStyle=elbowEdgeStyle;elbow=horizontal;align=left;verticalAlign=top;endArrow=open;endSize=8;strokeColor=#FF0000;endFill=1;rounded=0" edge="1" parent="XE2whXjkttcQL6sqDFUg-9" source="XE2whXjkttcQL6sqDFUg-17" target="XE2whXjkttcQL6sqDFUg-23">
          <mxGeometry x="-1" relative="1" as="geometry">
            <mxPoint x="190" y="305" as="targetPoint" />
          </mxGeometry>
        </mxCell>
        <mxCell id="XE2whXjkttcQL6sqDFUg-20" value="" style="endArrow=open;strokeColor=#FF0000;endFill=1;rounded=0" edge="1" parent="XE2whXjkttcQL6sqDFUg-9" source="XE2whXjkttcQL6sqDFUg-13" target="XE2whXjkttcQL6sqDFUg-17">
          <mxGeometry relative="1" as="geometry" />
        </mxCell>
        <mxCell id="XE2whXjkttcQL6sqDFUg-21" value="" style="shape=line;strokeWidth=6;strokeColor=#ff0000;rotation=90" vertex="1" parent="XE2whXjkttcQL6sqDFUg-9">
          <mxGeometry x="130" y="127.5" width="50" height="15" as="geometry" />
        </mxCell>
        <mxCell id="XE2whXjkttcQL6sqDFUg-22" value="" style="edgeStyle=elbowEdgeStyle;elbow=horizontal;verticalAlign=bottom;endArrow=open;endSize=8;strokeColor=#FF0000;endFill=1;rounded=0" edge="1" parent="XE2whXjkttcQL6sqDFUg-9" source="XE2whXjkttcQL6sqDFUg-21" target="XE2whXjkttcQL6sqDFUg-12">
          <mxGeometry x="130" y="90" as="geometry">
            <mxPoint x="230" y="140" as="targetPoint" />
          </mxGeometry>
        </mxCell>
        <mxCell id="XE2whXjkttcQL6sqDFUg-23" value="dispatch&#xa;netdevice " style="" vertex="1" parent="XE2whXjkttcQL6sqDFUg-9">
          <mxGeometry x="140" y="325" width="110" height="50" as="geometry" />
        </mxCell>
        <mxCell id="XE2whXjkttcQL6sqDFUg-24" value="" style="whiteSpace=wrap;strokeColor=#FF0000;fillColor=#FF0000;rotation=90;" vertex="1" parent="XE2whXjkttcQL6sqDFUg-9">
          <mxGeometry x="192.5" y="395" width="5" height="50" as="geometry" />
        </mxCell>
        <mxCell id="XE2whXjkttcQL6sqDFUg-25" value="" style="edgeStyle=elbowEdgeStyle;elbow=horizontal;strokeColor=#FF0000;endArrow=open;endFill=1;rounded=0" edge="1" parent="XE2whXjkttcQL6sqDFUg-9" source="XE2whXjkttcQL6sqDFUg-23">
          <mxGeometry width="100" height="100" relative="1" as="geometry">
            <mxPoint x="60" y="480" as="sourcePoint" />
            <mxPoint x="195" y="418" as="targetPoint" />
            <Array as="points">
              <mxPoint x="195" y="400" />
            </Array>
          </mxGeometry>
        </mxCell>
        <mxCell id="XE2whXjkttcQL6sqDFUg-26" value="" style="edgeStyle=elbowEdgeStyle;elbow=horizontal;align=left;verticalAlign=bottom;endArrow=open;endSize=8;strokeColor=#FF0000;endFill=1;rounded=0;" edge="1" parent="XE2whXjkttcQL6sqDFUg-9">
          <mxGeometry x="0.288" y="175" relative="1" as="geometry">
            <mxPoint x="420" y="90" as="targetPoint" />
            <Array as="points">
              <mxPoint x="420" y="-10.5" />
            </Array>
            <mxPoint x="280" y="50" as="sourcePoint" />
            <mxPoint as="offset" />
          </mxGeometry>
        </mxCell>
        <mxCell id="XE2whXjkttcQL6sqDFUg-27" value="" style="endArrow=none;html=1;fontSize=9;fontColor=#000000;exitX=1;exitY=0.5;exitDx=0;exitDy=0;edgeStyle=orthogonalEdgeStyle;shadow=0;rounded=0;fillColor=#e51400;strokeColor=#B20000;endFill=0;" edge="1" parent="XE2whXjkttcQL6sqDFUg-9" source="XE2whXjkttcQL6sqDFUg-24">
          <mxGeometry width="50" height="50" relative="1" as="geometry">
            <mxPoint x="240" y="495" as="sourcePoint" />
            <mxPoint x="280" y="50" as="targetPoint" />
          </mxGeometry>
        </mxCell>
        <mxCell id="XE2whXjkttcQL6sqDFUg-28" value="通过设备型号判断设备绑定SNMP模板" style="whiteSpace=wrap;" vertex="1" parent="XE2whXjkttcQL6sqDFUg-9">
          <mxGeometry x="330" y="90" width="180" height="50" as="geometry" />
        </mxCell>
        <mxCell id="XE2whXjkttcQL6sqDFUg-29" value="" style="edgeStyle=elbowEdgeStyle;elbow=horizontal;strokeColor=#FF0000;endArrow=open;endFill=1;rounded=0;entryX=0.5;entryY=0;entryDx=0;entryDy=0;" edge="1" parent="XE2whXjkttcQL6sqDFUg-9" target="XE2whXjkttcQL6sqDFUg-30">
          <mxGeometry width="100" height="100" relative="1" as="geometry">
            <mxPoint x="419.86" y="140" as="sourcePoint" />
            <mxPoint x="419.86" y="183" as="targetPoint" />
            <Array as="points">
              <mxPoint x="419.86" y="165" />
            </Array>
          </mxGeometry>
        </mxCell>
        <mxCell id="XE2whXjkttcQL6sqDFUg-30" value="更新模板oid Walk snmp信息,保存当前指标到数据库" style="whiteSpace=wrap;" vertex="1" parent="XE2whXjkttcQL6sqDFUg-9">
          <mxGeometry x="330" y="210" width="180" height="50" as="geometry" />
        </mxCell>
        <mxCell id="sEMWLZaodot3cei57XuO-10" value="当前到指标数据也同时保存在cache内存中" style="whiteSpace=wrap;" vertex="1" parent="XE2whXjkttcQL6sqDFUg-9">
          <mxGeometry x="330" y="325" width="180" height="50" as="geometry" />
        </mxCell>
        <mxCell id="sEMWLZaodot3cei57XuO-11" value="" style="edgeStyle=elbowEdgeStyle;elbow=horizontal;strokeColor=#FF0000;endArrow=open;endFill=1;rounded=0;entryX=0.5;entryY=0;entryDx=0;entryDy=0;exitX=0.5;exitY=1;exitDx=0;exitDy=0;" edge="1" parent="XE2whXjkttcQL6sqDFUg-9" source="XE2whXjkttcQL6sqDFUg-30">
          <mxGeometry width="100" height="100" relative="1" as="geometry">
            <mxPoint x="419.5000000000001" y="275" as="sourcePoint" />
            <mxPoint x="419.64" y="325" as="targetPoint" />
            <Array as="points">
              <mxPoint x="419.5" y="300" />
            </Array>
          </mxGeometry>
        </mxCell>
        <mxCell id="XE2whXjkttcQL6sqDFUg-34" value="" style="endArrow=open;strokeColor=#FF0000;endFill=1;rounded=0" edge="1" parent="6PQ8ppktEuucakuO9UaT-1" source="XE2whXjkttcQL6sqDFUg-6" target="XE2whXjkttcQL6sqDFUg-15">
          <mxGeometry relative="1" as="geometry" />
        </mxCell>
        <mxCell id="sEMWLZaodot3cei57XuO-0" value="Thread41-42" style="swimlane;whiteSpace=wrap" vertex="1" parent="6PQ8ppktEuucakuO9UaT-1">
          <mxGeometry x="921" y="190" width="409" height="570" as="geometry">
            <mxRectangle x="330" y="190" width="80" height="23" as="alternateBounds" />
          </mxGeometry>
        </mxCell>
        <mxCell id="sEMWLZaodot3cei57XuO-1" value="" style="ellipse;shape=startState;fillColor=#000000;strokeColor=#ff0000;" vertex="1" parent="sEMWLZaodot3cei57XuO-0">
          <mxGeometry x="92" y="40" width="30" height="30" as="geometry" />
        </mxCell>
        <mxCell id="sEMWLZaodot3cei57XuO-2" value="" style="edgeStyle=elbowEdgeStyle;elbow=horizontal;verticalAlign=bottom;endArrow=open;endSize=8;strokeColor=#FF0000;endFill=1;rounded=0" edge="1" parent="sEMWLZaodot3cei57XuO-0" source="sEMWLZaodot3cei57XuO-1">
          <mxGeometry x="92" y="40" as="geometry">
            <mxPoint x="107.28571428571422" y="111" as="targetPoint" />
          </mxGeometry>
        </mxCell>
        <mxCell id="sEMWLZaodot3cei57XuO-3" value="查找设备指标内存,判断设备可达性" style="whiteSpace=wrap;" vertex="1" parent="sEMWLZaodot3cei57XuO-0">
          <mxGeometry x="55" y="111" width="110" height="50" as="geometry" />
        </mxCell>
        <mxCell id="sEMWLZaodot3cei57XuO-4" value="更新设备状态,设备端口/板卡信息" style="whiteSpace=wrap;fontSize=9;" vertex="1" parent="sEMWLZaodot3cei57XuO-0">
          <mxGeometry x="56" y="220" width="110" height="50" as="geometry" />
        </mxCell>
        <mxCell id="sEMWLZaodot3cei57XuO-5" value="" style="endArrow=open;strokeColor=#FF0000;endFill=1;rounded=0;entryX=0.471;entryY=-0.043;entryDx=0;entryDy=0;entryPerimeter=0;exitX=0.5;exitY=1;exitDx=0;exitDy=0;" edge="1" parent="sEMWLZaodot3cei57XuO-0" source="sEMWLZaodot3cei57XuO-3">
          <mxGeometry relative="1" as="geometry">
            <mxPoint x="117.09090909090924" y="161" as="sourcePoint" />
            <mxPoint x="109.80999999999995" y="218.85000000000002" as="targetPoint" />
          </mxGeometry>
        </mxCell>
        <mxCell id="sEMWLZaodot3cei57XuO-6" value="multiprocess内存" style="whiteSpace=wrap;" vertex="1" parent="sEMWLZaodot3cei57XuO-0">
          <mxGeometry x="60" y="325" width="290" height="50" as="geometry" />
        </mxCell>
        <mxCell id="sEMWLZaodot3cei57XuO-7" value="" style="endArrow=open;strokeColor=#FF0000;endFill=1;rounded=0;entryX=0.175;entryY=-0.006;entryDx=0;entryDy=0;entryPerimeter=0;" edge="1" parent="sEMWLZaodot3cei57XuO-0" source="sEMWLZaodot3cei57XuO-4" target="sEMWLZaodot3cei57XuO-6">
          <mxGeometry relative="1" as="geometry">
            <mxPoint x="117" y="324" as="targetPoint" />
          </mxGeometry>
        </mxCell>
        <mxCell id="sEMWLZaodot3cei57XuO-12" value="" style="endArrow=open;strokeColor=#FF0000;endFill=1;rounded=0" edge="1" parent="sEMWLZaodot3cei57XuO-0">
          <mxGeometry relative="1" as="geometry">
            <mxPoint x="-40" y="350" as="sourcePoint" />
            <mxPoint x="60" y="349.58000000000004" as="targetPoint" />
          </mxGeometry>
        </mxCell>
        <mxCell id="sEMWLZaodot3cei57XuO-27" value="" style="ellipse;shape=startState;fillColor=#000000;strokeColor=#ff0000;" vertex="1" parent="sEMWLZaodot3cei57XuO-0">
          <mxGeometry x="256" y="40" width="30" height="30" as="geometry" />
        </mxCell>
        <mxCell id="sEMWLZaodot3cei57XuO-28" value="" style="edgeStyle=elbowEdgeStyle;elbow=horizontal;verticalAlign=bottom;endArrow=open;endSize=8;strokeColor=#FF0000;endFill=1;rounded=0" edge="1" parent="sEMWLZaodot3cei57XuO-0" source="sEMWLZaodot3cei57XuO-27">
          <mxGeometry x="-665" y="-150" as="geometry">
            <mxPoint x="271.2857142857142" y="111" as="targetPoint" />
          </mxGeometry>
        </mxCell>
        <mxCell id="sEMWLZaodot3cei57XuO-29" value="1minites Timer" style="" vertex="1" parent="sEMWLZaodot3cei57XuO-0">
          <mxGeometry x="219" y="111" width="110" height="50" as="geometry" />
        </mxCell>
        <mxCell id="sEMWLZaodot3cei57XuO-30" value="查找设备指标,上报barad系统" style="whiteSpace=wrap;fontSize=9;" vertex="1" parent="sEMWLZaodot3cei57XuO-0">
          <mxGeometry x="220" y="220" width="110" height="50" as="geometry" />
        </mxCell>
        <mxCell id="sEMWLZaodot3cei57XuO-31" value="" style="endArrow=open;strokeColor=#FF0000;endFill=1;rounded=0;entryX=0.471;entryY=-0.043;entryDx=0;entryDy=0;entryPerimeter=0;exitX=0.5;exitY=1;exitDx=0;exitDy=0;" edge="1" parent="sEMWLZaodot3cei57XuO-0" source="sEMWLZaodot3cei57XuO-29">
          <mxGeometry relative="1" as="geometry">
            <mxPoint x="-639.9090909090908" y="-29" as="sourcePoint" />
            <mxPoint x="273.80999999999995" y="218.85000000000002" as="targetPoint" />
          </mxGeometry>
        </mxCell>
        <mxCell id="sEMWLZaodot3cei57XuO-32" value="" style="endArrow=open;strokeColor=#FF0000;endFill=1;rounded=0;entryX=0.175;entryY=-0.006;entryDx=0;entryDy=0;entryPerimeter=0;" edge="1" parent="sEMWLZaodot3cei57XuO-0" source="sEMWLZaodot3cei57XuO-30">
          <mxGeometry relative="1" as="geometry">
            <mxPoint x="274.75" y="324.69999999999993" as="targetPoint" />
          </mxGeometry>
        </mxCell>
        <mxCell id="sEMWLZaodot3cei57XuO-33" value="" style="endArrow=open;strokeColor=#FF0000;endFill=1;rounded=0" edge="1" parent="sEMWLZaodot3cei57XuO-0">
          <mxGeometry relative="1" as="geometry">
            <mxPoint x="329" y="245.13" as="sourcePoint" />
            <mxPoint x="429" y="244.71000000000004" as="targetPoint" />
          </mxGeometry>
        </mxCell>
      </root>
    </mxGraphModel>
  </diagram>
  <diagram id="WZig5_2TwjvJ9cKWZKF6" name="配置备份">
    <mxGraphModel dx="1186" dy="796" grid="1" gridSize="10" guides="1" tooltips="1" connect="1" arrows="1" fold="1" page="1" pageScale="1" pageWidth="827" pageHeight="1169" math="0" shadow="0">
      <root>
        <mxCell id="fnrCv3oqIoXiNPHgp1Xy-0" />
        <mxCell id="fnrCv3oqIoXiNPHgp1Xy-1" parent="fnrCv3oqIoXiNPHgp1Xy-0" />
        <mxCell id="CibO1p7nK-OyoNYYtUNd-0" value="nms_controller" style="shape=umlLifeline;perimeter=lifelinePerimeter;whiteSpace=wrap;html=1;container=1;collapsible=0;recursiveResize=0;outlineConnect=0;rounded=1;shadow=0;comic=0;labelBackgroundColor=none;strokeWidth=1;fontFamily=Verdana;fontSize=12;align=center;" vertex="1" parent="fnrCv3oqIoXiNPHgp1Xy-1">
          <mxGeometry x="290" y="90" width="100" height="560" as="geometry" />
        </mxCell>
        <mxCell id="CibO1p7nK-OyoNYYtUNd-1" value="" style="html=1;points=[];perimeter=orthogonalPerimeter;rounded=0;shadow=0;comic=0;labelBackgroundColor=none;strokeWidth=1;fontFamily=Verdana;fontSize=12;align=center;" vertex="1" parent="CibO1p7nK-OyoNYYtUNd-0">
          <mxGeometry x="45" y="100" width="10" height="460" as="geometry" />
        </mxCell>
        <mxCell id="CibO1p7nK-OyoNYYtUNd-2" value="nms_monitor" style="shape=umlLifeline;perimeter=lifelinePerimeter;whiteSpace=wrap;html=1;container=1;collapsible=0;recursiveResize=0;outlineConnect=0;rounded=1;shadow=0;comic=0;labelBackgroundColor=none;strokeWidth=1;fontFamily=Verdana;fontSize=12;align=center;" vertex="1" parent="fnrCv3oqIoXiNPHgp1Xy-1">
          <mxGeometry x="420" y="90" width="100" height="560" as="geometry" />
        </mxCell>
        <mxCell id="CibO1p7nK-OyoNYYtUNd-3" value="" style="html=1;points=[];perimeter=orthogonalPerimeter;rounded=0;shadow=0;comic=0;labelBackgroundColor=none;strokeWidth=1;fontFamily=Verdana;fontSize=12;align=center;" vertex="1" parent="CibO1p7nK-OyoNYYtUNd-2">
          <mxGeometry x="45" y="100" width="10" height="160" as="geometry" />
        </mxCell>
        <mxCell id="CibO1p7nK-OyoNYYtUNd-4" value="SWITCH" style="shape=umlLifeline;perimeter=lifelinePerimeter;whiteSpace=wrap;html=1;container=1;collapsible=0;recursiveResize=0;outlineConnect=0;rounded=1;shadow=0;comic=0;labelBackgroundColor=none;strokeWidth=1;fontFamily=Verdana;fontSize=12;align=center;" vertex="1" parent="fnrCv3oqIoXiNPHgp1Xy-1">
          <mxGeometry x="560" y="90" width="100" height="550" as="geometry" />
        </mxCell>
        <mxCell id="CibO1p7nK-OyoNYYtUNd-5" value="HDFS" style="shape=umlLifeline;perimeter=lifelinePerimeter;whiteSpace=wrap;html=1;container=1;collapsible=0;recursiveResize=0;outlineConnect=0;rounded=1;shadow=0;comic=0;labelBackgroundColor=none;strokeWidth=1;fontFamily=Verdana;fontSize=12;align=center;" vertex="1" parent="fnrCv3oqIoXiNPHgp1Xy-1">
          <mxGeometry x="700" y="90" width="100" height="560" as="geometry" />
        </mxCell>
        <mxCell id="CibO1p7nK-OyoNYYtUNd-6" value="" style="html=1;points=[];perimeter=orthogonalPerimeter;rounded=0;shadow=0;comic=0;labelBackgroundColor=none;strokeWidth=1;fontFamily=Verdana;fontSize=12;align=center;" vertex="1" parent="CibO1p7nK-OyoNYYtUNd-5">
          <mxGeometry x="45" y="100" width="10" height="460" as="geometry" />
        </mxCell>
        <mxCell id="CibO1p7nK-OyoNYYtUNd-7" value="YUNAPI" style="shape=umlLifeline;perimeter=lifelinePerimeter;whiteSpace=wrap;html=1;container=1;collapsible=0;recursiveResize=0;outlineConnect=0;rounded=1;shadow=0;comic=0;labelBackgroundColor=none;strokeWidth=1;fontFamily=Verdana;fontSize=12;align=center;" vertex="1" parent="fnrCv3oqIoXiNPHgp1Xy-1">
          <mxGeometry x="150" y="90" width="100" height="560" as="geometry" />
        </mxCell>
        <mxCell id="CibO1p7nK-OyoNYYtUNd-8" value="" style="html=1;points=[];perimeter=orthogonalPerimeter;rounded=0;shadow=0;comic=0;labelBackgroundColor=none;strokeWidth=1;fontFamily=Verdana;fontSize=12;align=center;" vertex="1" parent="CibO1p7nK-OyoNYYtUNd-7">
          <mxGeometry x="45" y="100" width="10" height="460" as="geometry" />
        </mxCell>
        <mxCell id="CibO1p7nK-OyoNYYtUNd-9" value="" style="html=1;points=[];perimeter=orthogonalPerimeter;rounded=0;shadow=0;comic=0;labelBackgroundColor=none;strokeWidth=1;fontFamily=Verdana;fontSize=12;align=center;" vertex="1" parent="fnrCv3oqIoXiNPHgp1Xy-1">
          <mxGeometry x="605" y="190" width="10" height="90" as="geometry" />
        </mxCell>
        <mxCell id="CibO1p7nK-OyoNYYtUNd-11" value="dispatch" style="html=1;verticalAlign=bottom;endArrow=block;labelBackgroundColor=none;fontFamily=Verdana;fontSize=12;entryX=-0.014;entryY=0.038;entryDx=0;entryDy=0;entryPerimeter=0;" edge="1" parent="fnrCv3oqIoXiNPHgp1Xy-1">
          <mxGeometry x="-0.1683" relative="1" as="geometry">
            <mxPoint x="66" y="380" as="sourcePoint" />
            <mxPoint x="195.8599999999999" y="380" as="targetPoint" />
            <mxPoint as="offset" />
          </mxGeometry>
        </mxCell>
        <mxCell id="CibO1p7nK-OyoNYYtUNd-15" value="返回配置" style="html=1;verticalAlign=bottom;endArrow=open;dashed=1;endSize=8;labelBackgroundColor=none;fontFamily=Verdana;fontSize=12;exitX=-0.071;exitY=0.77;exitDx=0;exitDy=0;exitPerimeter=0;entryX=0.9;entryY=0.433;entryDx=0;entryDy=0;entryPerimeter=0;" edge="1" parent="fnrCv3oqIoXiNPHgp1Xy-1" source="CibO1p7nK-OyoNYYtUNd-9" target="CibO1p7nK-OyoNYYtUNd-3">
          <mxGeometry relative="1" as="geometry">
            <mxPoint x="480" y="259" as="targetPoint" />
            <mxPoint x="600" y="260" as="sourcePoint" />
          </mxGeometry>
        </mxCell>
        <mxCell id="CibO1p7nK-OyoNYYtUNd-19" value="return" style="html=1;verticalAlign=bottom;endArrow=open;dashed=1;endSize=8;labelBackgroundColor=none;fontFamily=Verdana;fontSize=12;edgeStyle=elbowEdgeStyle;elbow=vertical;" edge="1" parent="fnrCv3oqIoXiNPHgp1Xy-1">
          <mxGeometry x="-0.024" relative="1" as="geometry">
            <mxPoint x="206.00000000000023" y="510.03" as="targetPoint" />
            <Array as="points" />
            <mxPoint x="336.0000000000002" y="510.03" as="sourcePoint" />
            <mxPoint as="offset" />
          </mxGeometry>
        </mxCell>
        <mxCell id="CibO1p7nK-OyoNYYtUNd-22" value="返回配置文件" style="html=1;verticalAlign=bottom;endArrow=open;dashed=1;endSize=8;labelBackgroundColor=none;fontFamily=Verdana;fontSize=12;" edge="1" parent="fnrCv3oqIoXiNPHgp1Xy-1" source="CibO1p7nK-OyoNYYtUNd-5">
          <mxGeometry relative="1" as="geometry">
            <mxPoint x="346.9999999999998" y="480.0000000000001" as="targetPoint" />
            <mxPoint x="494.4000000000001" y="480.4000000000002" as="sourcePoint" />
          </mxGeometry>
        </mxCell>
        <mxCell id="5OQk0-miV1XTAbTjkqfP-0" value="定时获取配置" style="html=1;verticalAlign=bottom;endArrow=block;entryX=0;entryY=0;labelBackgroundColor=none;fontFamily=Verdana;fontSize=12;edgeStyle=elbowEdgeStyle;elbow=vertical;" edge="1" parent="fnrCv3oqIoXiNPHgp1Xy-1">
          <mxGeometry relative="1" as="geometry">
            <mxPoint x="475" y="220" as="sourcePoint" />
            <mxPoint x="605" y="220.00000000000227" as="targetPoint" />
            <Array as="points">
              <mxPoint x="530" y="220" />
            </Array>
          </mxGeometry>
        </mxCell>
        <mxCell id="5OQk0-miV1XTAbTjkqfP-38" value="保存配置文件" style="html=1;verticalAlign=bottom;endArrow=block;labelBackgroundColor=none;fontFamily=Verdana;fontSize=12;edgeStyle=elbowEdgeStyle;elbow=vertical;" edge="1" parent="fnrCv3oqIoXiNPHgp1Xy-1" target="CibO1p7nK-OyoNYYtUNd-5">
          <mxGeometry x="0.1293" relative="1" as="geometry">
            <mxPoint x="475" y="320" as="sourcePoint" />
            <mxPoint x="605" y="320.0000000000023" as="targetPoint" />
            <Array as="points">
              <mxPoint x="530" y="320" />
            </Array>
            <mxPoint as="offset" />
          </mxGeometry>
        </mxCell>
        <mxCell id="5OQk0-miV1XTAbTjkqfP-39" value="运维端" style="shape=umlLifeline;perimeter=lifelinePerimeter;whiteSpace=wrap;html=1;container=1;collapsible=0;recursiveResize=0;outlineConnect=0;rounded=1;shadow=0;comic=0;labelBackgroundColor=none;strokeWidth=1;fontFamily=Verdana;fontSize=12;align=center;" vertex="1" parent="fnrCv3oqIoXiNPHgp1Xy-1">
          <mxGeometry x="10" y="90" width="100" height="560" as="geometry" />
        </mxCell>
        <mxCell id="5OQk0-miV1XTAbTjkqfP-40" value="" style="html=1;points=[];perimeter=orthogonalPerimeter;rounded=0;shadow=0;comic=0;labelBackgroundColor=none;strokeWidth=1;fontFamily=Verdana;fontSize=12;align=center;" vertex="1" parent="5OQk0-miV1XTAbTjkqfP-39">
          <mxGeometry x="45" y="100" width="10" height="460" as="geometry" />
        </mxCell>
        <mxCell id="5OQk0-miV1XTAbTjkqfP-41" value="dispatch" style="html=1;verticalAlign=bottom;endArrow=block;labelBackgroundColor=none;fontFamily=Verdana;fontSize=12;entryX=-0.014;entryY=0.038;entryDx=0;entryDy=0;entryPerimeter=0;" edge="1" parent="fnrCv3oqIoXiNPHgp1Xy-1">
          <mxGeometry x="-0.1683" relative="1" as="geometry">
            <mxPoint x="204" y="410" as="sourcePoint" />
            <mxPoint x="333.8599999999999" y="410" as="targetPoint" />
            <mxPoint as="offset" />
          </mxGeometry>
        </mxCell>
        <mxCell id="5OQk0-miV1XTAbTjkqfP-42" value="dispatch" style="html=1;verticalAlign=bottom;endArrow=block;labelBackgroundColor=none;fontFamily=Verdana;fontSize=12;" edge="1" parent="fnrCv3oqIoXiNPHgp1Xy-1" target="CibO1p7nK-OyoNYYtUNd-5">
          <mxGeometry x="0.0087" relative="1" as="geometry">
            <mxPoint x="346.9999999999999" y="440" as="sourcePoint" />
            <mxPoint x="470" y="440" as="targetPoint" />
            <mxPoint as="offset" />
          </mxGeometry>
        </mxCell>
        <mxCell id="5OQk0-miV1XTAbTjkqfP-43" value="return" style="html=1;verticalAlign=bottom;endArrow=open;dashed=1;endSize=8;labelBackgroundColor=none;fontFamily=Verdana;fontSize=12;edgeStyle=elbowEdgeStyle;elbow=vertical;" edge="1" parent="fnrCv3oqIoXiNPHgp1Xy-1">
          <mxGeometry x="-0.024" relative="1" as="geometry">
            <mxPoint x="65.00000000000023" y="550.06" as="targetPoint" />
            <Array as="points" />
            <mxPoint x="195.00000000000023" y="550.06" as="sourcePoint" />
            <mxPoint as="offset" />
          </mxGeometry>
        </mxCell>
        <mxCell id="tTLRafmMiGLmd84WmZUH-0" value="比较差异性" style="html=1;verticalAlign=bottom;endArrow=block;labelBackgroundColor=none;fontFamily=Verdana;fontSize=12;elbow=vertical;edgeStyle=orthogonalEdgeStyle;curved=1;entryX=1;entryY=0.286;entryPerimeter=0;exitX=1.038;exitY=0.345;exitPerimeter=0;" edge="1" parent="fnrCv3oqIoXiNPHgp1Xy-1">
          <mxGeometry relative="1" as="geometry">
            <mxPoint x="64.00000000000011" y="584.9999999999999" as="sourcePoint" />
            <mxPoint x="68.62" y="622.92" as="targetPoint" />
            <Array as="points">
              <mxPoint x="118.62" y="584.9" />
              <mxPoint x="118.62" y="622.9" />
            </Array>
          </mxGeometry>
        </mxCell>
      </root>
    </mxGraphModel>
  </diagram>
  <diagram id="wQVkSitT9aoY6sOL1P_N" name="IP地址管理">
    <mxGraphModel dx="1395" dy="936" grid="1" gridSize="10" guides="1" tooltips="1" connect="1" arrows="1" fold="1" page="1" pageScale="1" pageWidth="827" pageHeight="1169" math="0" shadow="0">
      <root>
        <mxCell id="aBLt60vv1AePVZdst1tO-0" />
        <mxCell id="aBLt60vv1AePVZdst1tO-1" parent="aBLt60vv1AePVZdst1tO-0" />
        <mxCell id="oQyqvFXJW_p1DQMaEPfr-0" value="YunApi" style="shape=umlLifeline;perimeter=lifelinePerimeter;whiteSpace=wrap;html=1;container=1;collapsible=0;recursiveResize=0;outlineConnect=0;rounded=1;shadow=0;comic=0;labelBackgroundColor=none;strokeWidth=1;fontFamily=Verdana;fontSize=12;align=center;" vertex="1" parent="aBLt60vv1AePVZdst1tO-1">
          <mxGeometry x="240" y="80" width="100" height="720" as="geometry" />
        </mxCell>
        <mxCell id="oQyqvFXJW_p1DQMaEPfr-1" value="" style="html=1;points=[];perimeter=orthogonalPerimeter;rounded=0;shadow=0;comic=0;labelBackgroundColor=none;strokeWidth=1;fontFamily=Verdana;fontSize=12;align=center;" vertex="1" parent="oQyqvFXJW_p1DQMaEPfr-0">
          <mxGeometry x="45" y="100" width="10" height="620" as="geometry" />
        </mxCell>
        <mxCell id="oQyqvFXJW_p1DQMaEPfr-2" value="nms_controller" style="shape=umlLifeline;perimeter=lifelinePerimeter;whiteSpace=wrap;html=1;container=1;collapsible=0;recursiveResize=0;outlineConnect=0;rounded=1;shadow=0;comic=0;labelBackgroundColor=none;strokeWidth=1;fontFamily=Verdana;fontSize=12;align=center;" vertex="1" parent="aBLt60vv1AePVZdst1tO-1">
          <mxGeometry x="429" y="80" width="100" height="720" as="geometry" />
        </mxCell>
        <mxCell id="oQyqvFXJW_p1DQMaEPfr-3" value="" style="html=1;points=[];perimeter=orthogonalPerimeter;rounded=0;shadow=0;comic=0;labelBackgroundColor=none;strokeWidth=1;fontFamily=Verdana;fontSize=12;align=center;" vertex="1" parent="oQyqvFXJW_p1DQMaEPfr-2">
          <mxGeometry x="45" y="120" width="10" height="600" as="geometry" />
        </mxCell>
        <mxCell id="oQyqvFXJW_p1DQMaEPfr-4" value="db" style="shape=umlLifeline;perimeter=lifelinePerimeter;whiteSpace=wrap;html=1;container=1;collapsible=0;recursiveResize=0;outlineConnect=0;rounded=1;shadow=0;comic=0;labelBackgroundColor=none;strokeWidth=1;fontFamily=Verdana;fontSize=12;align=center;" vertex="1" parent="aBLt60vv1AePVZdst1tO-1">
          <mxGeometry x="638" y="80" width="100" height="430" as="geometry" />
        </mxCell>
        <mxCell id="oQyqvFXJW_p1DQMaEPfr-7" value="运维端" style="shape=umlLifeline;perimeter=lifelinePerimeter;whiteSpace=wrap;html=1;container=1;collapsible=0;recursiveResize=0;outlineConnect=0;rounded=1;shadow=0;comic=0;labelBackgroundColor=none;strokeWidth=1;fontFamily=Verdana;fontSize=12;align=center;" vertex="1" parent="aBLt60vv1AePVZdst1tO-1">
          <mxGeometry x="86" y="80" width="100" height="720" as="geometry" />
        </mxCell>
        <mxCell id="oQyqvFXJW_p1DQMaEPfr-8" value="" style="html=1;points=[];perimeter=orthogonalPerimeter;rounded=0;shadow=0;comic=0;labelBackgroundColor=none;strokeWidth=1;fontFamily=Verdana;fontSize=12;align=center;" vertex="1" parent="oQyqvFXJW_p1DQMaEPfr-7">
          <mxGeometry x="45" y="100" width="10" height="620" as="geometry" />
        </mxCell>
        <mxCell id="oQyqvFXJW_p1DQMaEPfr-9" value="" style="html=1;points=[];perimeter=orthogonalPerimeter;rounded=0;shadow=0;comic=0;labelBackgroundColor=none;strokeWidth=1;fontFamily=Verdana;fontSize=12;align=center;" vertex="1" parent="aBLt60vv1AePVZdst1tO-1">
          <mxGeometry x="683" y="220" width="10" height="580" as="geometry" />
        </mxCell>
        <mxCell id="oQyqvFXJW_p1DQMaEPfr-10" value="add_ip_segment" style="html=1;verticalAlign=bottom;endArrow=block;labelBackgroundColor=none;fontFamily=Verdana;fontSize=12;edgeStyle=elbowEdgeStyle;elbow=vertical;" edge="1" parent="aBLt60vv1AePVZdst1tO-1" target="oQyqvFXJW_p1DQMaEPfr-9">
          <mxGeometry x="0.2536" relative="1" as="geometry">
            <mxPoint x="553" y="220" as="sourcePoint" />
            <Array as="points">
              <mxPoint x="480" y="220" />
            </Array>
            <mxPoint as="offset" />
          </mxGeometry>
        </mxCell>
        <mxCell id="oQyqvFXJW_p1DQMaEPfr-11" value="CreateIPAddresses" style="html=1;verticalAlign=bottom;endArrow=block;labelBackgroundColor=none;fontFamily=Verdana;fontSize=12;" edge="1" parent="aBLt60vv1AePVZdst1tO-1" target="oQyqvFXJW_p1DQMaEPfr-0">
          <mxGeometry relative="1" as="geometry">
            <mxPoint x="140" y="520" as="sourcePoint" />
            <mxPoint x="280" y="520" as="targetPoint" />
          </mxGeometry>
        </mxCell>
        <mxCell id="oQyqvFXJW_p1DQMaEPfr-12" value="CreateIPSegments" style="html=1;verticalAlign=bottom;endArrow=block;entryX=0;entryY=0;labelBackgroundColor=none;fontFamily=Verdana;fontSize=12;edgeStyle=elbowEdgeStyle;elbow=vertical;" edge="1" parent="aBLt60vv1AePVZdst1tO-1" source="oQyqvFXJW_p1DQMaEPfr-8" target="oQyqvFXJW_p1DQMaEPfr-1">
          <mxGeometry relative="1" as="geometry">
            <mxPoint x="220" y="190" as="sourcePoint" />
          </mxGeometry>
        </mxCell>
        <mxCell id="oQyqvFXJW_p1DQMaEPfr-13" value="CreateIPSegments" style="html=1;verticalAlign=bottom;endArrow=block;entryX=0;entryY=0;labelBackgroundColor=none;fontFamily=Verdana;fontSize=12;edgeStyle=elbowEdgeStyle;elbow=vertical;" edge="1" parent="aBLt60vv1AePVZdst1tO-1" source="oQyqvFXJW_p1DQMaEPfr-1" target="oQyqvFXJW_p1DQMaEPfr-3">
          <mxGeometry relative="1" as="geometry">
            <mxPoint x="370" y="200" as="sourcePoint" />
          </mxGeometry>
        </mxCell>
        <mxCell id="oQyqvFXJW_p1DQMaEPfr-14" value="return" style="html=1;verticalAlign=bottom;endArrow=open;dashed=1;endSize=8;labelBackgroundColor=none;fontFamily=Verdana;fontSize=12;" edge="1" parent="aBLt60vv1AePVZdst1tO-1">
          <mxGeometry relative="1" as="geometry">
            <mxPoint x="478.6666666666665" y="250.0000000000002" as="targetPoint" />
            <mxPoint x="683" y="250.00000000000009" as="sourcePoint" />
          </mxGeometry>
        </mxCell>
        <mxCell id="oQyqvFXJW_p1DQMaEPfr-15" value="return" style="html=1;verticalAlign=bottom;endArrow=open;dashed=1;endSize=8;labelBackgroundColor=none;fontFamily=Verdana;fontSize=12;" edge="1" parent="aBLt60vv1AePVZdst1tO-1">
          <mxGeometry relative="1" as="geometry">
            <mxPoint x="294.9999999999998" y="270.0000000000001" as="targetPoint" />
            <mxPoint x="474.5" y="270.0000000000001" as="sourcePoint" />
          </mxGeometry>
        </mxCell>
        <mxCell id="oQyqvFXJW_p1DQMaEPfr-17" value="CreateIPAddresses" style="html=1;verticalAlign=bottom;endArrow=block;labelBackgroundColor=none;fontFamily=Verdana;fontSize=12;" edge="1" parent="aBLt60vv1AePVZdst1tO-1" target="oQyqvFXJW_p1DQMaEPfr-2">
          <mxGeometry relative="1" as="geometry">
            <mxPoint x="295" y="540" as="sourcePoint" />
            <mxPoint x="445" y="540" as="targetPoint" />
          </mxGeometry>
        </mxCell>
        <mxCell id="oQyqvFXJW_p1DQMaEPfr-18" value="add_ip_address" style="html=1;verticalAlign=bottom;endArrow=block;labelBackgroundColor=none;fontFamily=Verdana;fontSize=12;" edge="1" parent="aBLt60vv1AePVZdst1tO-1">
          <mxGeometry x="0.0308" relative="1" as="geometry">
            <mxPoint x="490" y="560" as="sourcePoint" />
            <mxPoint x="680" y="560" as="targetPoint" />
            <mxPoint as="offset" />
          </mxGeometry>
        </mxCell>
        <mxCell id="oQyqvFXJW_p1DQMaEPfr-20" value="参数校验" style="text;html=1;strokeColor=none;fillColor=none;align=center;verticalAlign=middle;whiteSpace=wrap;rounded=0;shadow=0;labelBackgroundColor=none;sketch=0;fontColor=#000000;" vertex="1" parent="aBLt60vv1AePVZdst1tO-1">
          <mxGeometry x="300" y="160" width="55" height="20" as="geometry" />
        </mxCell>
        <mxCell id="oQyqvFXJW_p1DQMaEPfr-22" value="return" style="html=1;verticalAlign=bottom;endArrow=open;dashed=1;endSize=8;labelBackgroundColor=none;fontFamily=Verdana;fontSize=12;" edge="1" parent="aBLt60vv1AePVZdst1tO-1">
          <mxGeometry relative="1" as="geometry">
            <mxPoint x="296.9999999999998" y="610.0000000000001" as="targetPoint" />
            <mxPoint x="481.5" y="610" as="sourcePoint" />
          </mxGeometry>
        </mxCell>
        <mxCell id="oQyqvFXJW_p1DQMaEPfr-26" value="return" style="html=1;verticalAlign=bottom;endArrow=open;dashed=1;endSize=8;labelBackgroundColor=none;fontFamily=Verdana;fontSize=12;exitX=0.048;exitY=0.259;exitDx=0;exitDy=0;exitPerimeter=0;" edge="1" parent="aBLt60vv1AePVZdst1tO-1">
          <mxGeometry relative="1" as="geometry">
            <mxPoint x="139.99999999999977" y="289.60000000000014" as="targetPoint" />
            <mxPoint x="285.48" y="288.74" as="sourcePoint" />
          </mxGeometry>
        </mxCell>
        <mxCell id="oQyqvFXJW_p1DQMaEPfr-27" value="return" style="html=1;verticalAlign=bottom;endArrow=open;dashed=1;endSize=8;labelBackgroundColor=none;fontFamily=Verdana;fontSize=12;" edge="1" parent="aBLt60vv1AePVZdst1tO-1">
          <mxGeometry relative="1" as="geometry">
            <mxPoint x="142.99999999999977" y="630.0000000000001" as="targetPoint" />
            <mxPoint x="290.4000000000001" y="630.4000000000002" as="sourcePoint" />
          </mxGeometry>
        </mxCell>
        <mxCell id="oQyqvFXJW_p1DQMaEPfr-28" value="return" style="html=1;verticalAlign=bottom;endArrow=open;dashed=1;endSize=8;labelBackgroundColor=none;fontFamily=Verdana;fontSize=12;" edge="1" parent="aBLt60vv1AePVZdst1tO-1">
          <mxGeometry relative="1" as="geometry">
            <mxPoint x="485.9999999999998" y="590" as="targetPoint" />
            <mxPoint x="683" y="590" as="sourcePoint" />
          </mxGeometry>
        </mxCell>
        <mxCell id="oQyqvFXJW_p1DQMaEPfr-29" value="delete_ip_segment" style="html=1;verticalAlign=bottom;endArrow=block;labelBackgroundColor=none;fontFamily=Verdana;fontSize=12;edgeStyle=elbowEdgeStyle;elbow=vertical;" edge="1" parent="aBLt60vv1AePVZdst1tO-1">
          <mxGeometry x="0.3261" relative="1" as="geometry">
            <mxPoint x="553" y="379.58000000000004" as="sourcePoint" />
            <Array as="points">
              <mxPoint x="480" y="379.58000000000004" />
            </Array>
            <mxPoint x="683" y="379.58000000000004" as="targetPoint" />
            <mxPoint as="offset" />
          </mxGeometry>
        </mxCell>
        <mxCell id="oQyqvFXJW_p1DQMaEPfr-30" value="DeleteIPSegments" style="html=1;verticalAlign=bottom;endArrow=block;entryX=0;entryY=0;labelBackgroundColor=none;fontFamily=Verdana;fontSize=12;edgeStyle=elbowEdgeStyle;elbow=vertical;" edge="1" parent="aBLt60vv1AePVZdst1tO-1">
          <mxGeometry relative="1" as="geometry">
            <mxPoint x="141" y="339.9133333333334" as="sourcePoint" />
            <mxPoint x="285" y="339.5800000000022" as="targetPoint" />
          </mxGeometry>
        </mxCell>
        <mxCell id="oQyqvFXJW_p1DQMaEPfr-31" value="DeleteIPSegments" style="html=1;verticalAlign=bottom;endArrow=block;entryX=0;entryY=0;labelBackgroundColor=none;fontFamily=Verdana;fontSize=12;edgeStyle=elbowEdgeStyle;elbow=vertical;" edge="1" parent="aBLt60vv1AePVZdst1tO-1">
          <mxGeometry relative="1" as="geometry">
            <mxPoint x="295" y="359.9133333333334" as="sourcePoint" />
            <mxPoint x="474" y="359.5800000000015" as="targetPoint" />
          </mxGeometry>
        </mxCell>
        <mxCell id="oQyqvFXJW_p1DQMaEPfr-32" value="return" style="html=1;verticalAlign=bottom;endArrow=open;dashed=1;endSize=8;labelBackgroundColor=none;fontFamily=Verdana;fontSize=12;" edge="1" parent="aBLt60vv1AePVZdst1tO-1">
          <mxGeometry relative="1" as="geometry">
            <mxPoint x="478.66666666666674" y="410.2" as="targetPoint" />
            <mxPoint x="683.0000000000002" y="410.2" as="sourcePoint" />
          </mxGeometry>
        </mxCell>
        <mxCell id="oQyqvFXJW_p1DQMaEPfr-33" value="return" style="html=1;verticalAlign=bottom;endArrow=open;dashed=1;endSize=8;labelBackgroundColor=none;fontFamily=Verdana;fontSize=12;" edge="1" parent="aBLt60vv1AePVZdst1tO-1">
          <mxGeometry relative="1" as="geometry">
            <mxPoint x="295" y="430.2" as="targetPoint" />
            <mxPoint x="474.5000000000002" y="430.2" as="sourcePoint" />
          </mxGeometry>
        </mxCell>
        <mxCell id="oQyqvFXJW_p1DQMaEPfr-34" value="return" style="html=1;verticalAlign=bottom;endArrow=open;dashed=1;endSize=8;labelBackgroundColor=none;fontFamily=Verdana;fontSize=12;exitX=0.048;exitY=0.259;exitDx=0;exitDy=0;exitPerimeter=0;" edge="1" parent="aBLt60vv1AePVZdst1tO-1">
          <mxGeometry relative="1" as="geometry">
            <mxPoint x="140" y="449.8" as="targetPoint" />
            <mxPoint x="285.48000000000025" y="448.9399999999999" as="sourcePoint" />
          </mxGeometry>
        </mxCell>
        <mxCell id="oQyqvFXJW_p1DQMaEPfr-35" value="DeleteIPAddresses" style="html=1;verticalAlign=bottom;endArrow=block;labelBackgroundColor=none;fontFamily=Verdana;fontSize=12;" edge="1" parent="aBLt60vv1AePVZdst1tO-1">
          <mxGeometry relative="1" as="geometry">
            <mxPoint x="140" y="680" as="sourcePoint" />
            <mxPoint x="289.5" y="680" as="targetPoint" />
          </mxGeometry>
        </mxCell>
        <mxCell id="oQyqvFXJW_p1DQMaEPfr-36" value="DeleteIPAddresses" style="html=1;verticalAlign=bottom;endArrow=block;labelBackgroundColor=none;fontFamily=Verdana;fontSize=12;" edge="1" parent="aBLt60vv1AePVZdst1tO-1">
          <mxGeometry relative="1" as="geometry">
            <mxPoint x="295" y="700" as="sourcePoint" />
            <mxPoint x="478.5" y="700" as="targetPoint" />
          </mxGeometry>
        </mxCell>
        <mxCell id="oQyqvFXJW_p1DQMaEPfr-37" value="delete_ip_address" style="html=1;verticalAlign=bottom;endArrow=block;labelBackgroundColor=none;fontFamily=Verdana;fontSize=12;" edge="1" parent="aBLt60vv1AePVZdst1tO-1">
          <mxGeometry x="0.0308" relative="1" as="geometry">
            <mxPoint x="490" y="720" as="sourcePoint" />
            <mxPoint x="680" y="720" as="targetPoint" />
            <mxPoint as="offset" />
          </mxGeometry>
        </mxCell>
        <mxCell id="oQyqvFXJW_p1DQMaEPfr-38" value="return" style="html=1;verticalAlign=bottom;endArrow=open;dashed=1;endSize=8;labelBackgroundColor=none;fontFamily=Verdana;fontSize=12;" edge="1" parent="aBLt60vv1AePVZdst1tO-1">
          <mxGeometry relative="1" as="geometry">
            <mxPoint x="296.9999999999998" y="770" as="targetPoint" />
            <mxPoint x="481.5" y="770" as="sourcePoint" />
          </mxGeometry>
        </mxCell>
        <mxCell id="oQyqvFXJW_p1DQMaEPfr-39" value="return" style="html=1;verticalAlign=bottom;endArrow=open;dashed=1;endSize=8;labelBackgroundColor=none;fontFamily=Verdana;fontSize=12;" edge="1" parent="aBLt60vv1AePVZdst1tO-1">
          <mxGeometry relative="1" as="geometry">
            <mxPoint x="142.99999999999977" y="790" as="targetPoint" />
            <mxPoint x="290.4000000000001" y="790.4000000000001" as="sourcePoint" />
          </mxGeometry>
        </mxCell>
        <mxCell id="oQyqvFXJW_p1DQMaEPfr-40" value="return" style="html=1;verticalAlign=bottom;endArrow=open;dashed=1;endSize=8;labelBackgroundColor=none;fontFamily=Verdana;fontSize=12;" edge="1" parent="aBLt60vv1AePVZdst1tO-1">
          <mxGeometry relative="1" as="geometry">
            <mxPoint x="485.9999999999998" y="750" as="targetPoint" />
            <mxPoint x="683" y="750" as="sourcePoint" />
          </mxGeometry>
        </mxCell>
        <mxCell id="oQyqvFXJW_p1DQMaEPfr-41" value="参数校验" style="text;html=1;strokeColor=none;fillColor=none;align=center;verticalAlign=middle;whiteSpace=wrap;rounded=0;shadow=0;labelBackgroundColor=none;sketch=0;fontColor=#000000;" vertex="1" parent="aBLt60vv1AePVZdst1tO-1">
          <mxGeometry x="300" y="320" width="55" height="20" as="geometry" />
        </mxCell>
        <mxCell id="oQyqvFXJW_p1DQMaEPfr-43" value="参数校验" style="text;html=1;strokeColor=none;fillColor=none;align=center;verticalAlign=middle;whiteSpace=wrap;rounded=0;shadow=0;labelBackgroundColor=none;sketch=0;fontColor=#000000;" vertex="1" parent="aBLt60vv1AePVZdst1tO-1">
          <mxGeometry x="300" y="490" width="55" height="20" as="geometry" />
        </mxCell>
        <mxCell id="oQyqvFXJW_p1DQMaEPfr-44" value="参数校验" style="text;html=1;strokeColor=none;fillColor=none;align=center;verticalAlign=middle;whiteSpace=wrap;rounded=0;shadow=0;labelBackgroundColor=none;sketch=0;fontColor=#000000;" vertex="1" parent="aBLt60vv1AePVZdst1tO-1">
          <mxGeometry x="300" y="660" width="55" height="20" as="geometry" />
        </mxCell>
        <mxCell id="fdb_8sDgyAKXMlQIID1S-0" value="网段去重,根据规则裂解网段地址保存在IP地址表" style="text;html=1;strokeColor=none;fillColor=none;align=center;verticalAlign=middle;whiteSpace=wrap;rounded=0;shadow=0;labelBackgroundColor=none;sketch=0;fontColor=#000000;" vertex="1" parent="aBLt60vv1AePVZdst1tO-1">
          <mxGeometry x="500" y="170" width="140" height="20" as="geometry" />
        </mxCell>
        <mxCell id="fdb_8sDgyAKXMlQIID1S-1" value="删除网段内的IP地址表,不回收已经分配的IP地址" style="text;html=1;strokeColor=none;fillColor=none;align=center;verticalAlign=middle;whiteSpace=wrap;rounded=0;shadow=0;labelBackgroundColor=none;sketch=0;fontColor=#000000;" vertex="1" parent="aBLt60vv1AePVZdst1tO-1">
          <mxGeometry x="490" y="330" width="140" height="20" as="geometry" />
        </mxCell>
        <mxCell id="fdb_8sDgyAKXMlQIID1S-2" value="分配IP地址" style="text;html=1;strokeColor=none;fillColor=none;align=center;verticalAlign=middle;whiteSpace=wrap;rounded=0;shadow=0;labelBackgroundColor=none;sketch=0;fontColor=#000000;" vertex="1" parent="aBLt60vv1AePVZdst1tO-1">
          <mxGeometry x="498" y="520" width="62" height="20" as="geometry" />
        </mxCell>
        <mxCell id="fdb_8sDgyAKXMlQIID1S-3" value="回收IP地址" style="text;html=1;strokeColor=none;fillColor=none;align=center;verticalAlign=middle;whiteSpace=wrap;rounded=0;shadow=0;labelBackgroundColor=none;sketch=0;fontColor=#000000;" vertex="1" parent="aBLt60vv1AePVZdst1tO-1">
          <mxGeometry x="498" y="680" width="62" height="20" as="geometry" />
        </mxCell>
      </root>
    </mxGraphModel>
  </diagram>
</mxfile>
